<svg xmlns="http://www.w3.org/2000/svg" xmlns:xlink="http://www.w3.org/1999/xlink" xmlns:inkscape="http://www.inkscape.org/namespaces/inkscape" version="1.1" width="143.36" height="115.677" viewBox="0 0 143.36 115.677">
<defs>
<clipPath id="clip_0">
<path transform="matrix(1,0,0,-1,-148.304,532.963)" d="M0 0H612V792H0Z"/>
</clipPath>
</defs>
<g clip-path="url(#clip_0)">
<path transform="matrix(1,0,0,-1,71.925998,-77.14398)" stroke-width=".79701" stroke-linecap="butt" stroke-miterlimit="10" stroke-linejoin="miter" fill="none" stroke="#0000ff" d="M70.86703 0C70.86703 31.31142 39.13928 56.69363 0 56.69363-39.13928 56.69363-70.86703 31.31142-70.86703 0-70.86703-31.31142-39.13928-56.69363 0-56.69363 39.13928-56.69363 70.86703-31.31142 70.86703 0ZM0 0"/>
<text fill="#0000ff" xml:space="preserve" transform="matrix(1 0 -0 1 -148.304 532.963)" font-size="9.9626" font-family="CMMIB10" font-weight="bold" font-style="italic"><tspan y="-600.529" x="199.655">a</tspan></text>
<text fill="#0000ff" xml:space="preserve" transform="matrix(1 0 -0 1 -148.304 532.963)" font-size="9.9626" font-family="CMR10"><tspan y="-600.529" x="205.95999">(</tspan></text>
<text fill="#0000ff" xml:space="preserve" transform="matrix(1 0 -0 1 -148.304 532.963)" font-size="9.9626" font-family="CMMI10" font-style="italic"><tspan y="-600.529" x="209.83399">t</tspan></text>
<text fill="#0000ff" xml:space="preserve" transform="matrix(1 0 -0 1 -148.304 532.963)" font-size="9.9626" font-family="CMR10"><tspan y="-600.529" x="213.43199">)</tspan></text>
<text xml:space="preserve" transform="matrix(1 0 -0 1 -148.30402 532.963)" font-size="9.9626" font-family="CMMI10" font-style="italic"><tspan y="-602.849" x="152.033">&#x03b1;</tspan></text>
<text xml:space="preserve" transform="matrix(1 0 -0 1 -148.30402 532.963)" font-size="6.9738" font-family="CMR7"><tspan y="-606.464" x="158.44301 161.55333 165.5284">(1)</tspan></text>
<text xml:space="preserve" transform="matrix(1 0 -0 1 -148.304 532.963)" font-size="9.9626" font-family="CMMI10" font-style="italic"><tspan y="-636.865" x="256.348">&#x03b1;</tspan></text>
<text xml:space="preserve" transform="matrix(1 0 -0 1 -148.304 532.963)" font-size="6.9738" font-family="CMR7"><tspan y="-640.48" x="262.758 265.86833 269.84339">(2)</tspan></text>
<text xml:space="preserve" transform="matrix(1 0 -0 1 -148.304 532.963)" font-size="9.9626" font-family="CMMI10" font-style="italic"><tspan y="-591.511" x="270.521">&#x03b1;</tspan></text>
<text xml:space="preserve" transform="matrix(1 0 -0 1 -148.304 532.963)" font-size="6.9738" font-family="CMR7"><tspan y="-595.126" x="276.931 280.04133 284.0164">(3)</tspan></text>
<path transform="matrix(1,0,0,-1,71.925998,-77.14398)" stroke-width=".79701" stroke-linecap="butt" stroke-miterlimit="10" stroke-linejoin="miter" fill="none" stroke="#0000ff" d="M0 0C19.43002 20.10478 19.43002 20.10478 66.59354 19.39066"/>
<path transform="matrix(1,0,0,-1,71.925998,-77.14398)" stroke-width=".79701" stroke-linecap="butt" stroke-miterlimit="10" stroke-linejoin="miter" fill="none" stroke="#0000ff" d="M0 0C-18.67784 5.18828-18.67784 5.18828-35.43349 49.09824"/>
<path transform="matrix(1,0,0,-1,71.925998,-77.14398)" stroke-width=".79701" stroke-linecap="butt" stroke-miterlimit="10" stroke-linejoin="miter" fill="none" stroke="#0000ff" d="M0 0C4.59526-18.16614 4.59526-18.16614-24.23811-53.27483"/>
<text xml:space="preserve" transform="matrix(1 0 -0 1 -148.304 532.963)" font-size="9.9626" font-family="CMMI10" font-style="italic"><tspan y="-637.28" x="169.041">&#x03b1;</tspan></text>
<text xml:space="preserve" transform="matrix(1 0 -0 1 -148.304 532.963)" font-size="6.9738" font-family="CMR7"><tspan y="-640.895" x="175.451 178.56133 182.53639">(1)</tspan></text>
<text xml:space="preserve" transform="matrix(1 0 -0 1 -148.304 532.963)" font-size="9.9626" font-family="CMSY10" font-style="italic"><tspan y="-637.28" x="188.36101">&#x2212;</tspan></text>
<text xml:space="preserve" transform="matrix(1 0 -0 1 -148.304 532.963)" font-size="9.9626" font-family="CMMI10" font-style="italic"><tspan y="-637.28" x="198.32302">&#x03b1;</tspan></text>
<text xml:space="preserve" transform="matrix(1 0 -0 1 -148.304 532.963)" font-size="6.9738" font-family="CMR7"><tspan y="-640.895" x="204.73302 207.84334 211.8184">(2)</tspan></text>
<text xml:space="preserve" transform="matrix(1 0 -0 1 -148.304 532.963)" font-size="9.9626" font-family="CMMI10" font-style="italic"><tspan y="-617.437" x="206.741">&#x03b1;</tspan></text>
<text xml:space="preserve" transform="matrix(1 0 -0 1 -148.304 532.963)" font-size="6.9738" font-family="CMR7"><tspan y="-621.05307" x="213.151 216.26132 220.23639">(2)</tspan></text>
<text xml:space="preserve" transform="matrix(1 0 -0 1 -148.304 532.963)" font-size="9.9626" font-family="CMSY10" font-style="italic"><tspan y="-617.437" x="226.061">&#x2212;</tspan></text>
<text xml:space="preserve" transform="matrix(1 0 -0 1 -148.304 532.963)" font-size="9.9626" font-family="CMMI10" font-style="italic"><tspan y="-617.437" x="236.024">&#x03b1;</tspan></text>
<text xml:space="preserve" transform="matrix(1 0 -0 1 -148.304 532.963)" font-size="6.9738" font-family="CMR7"><tspan y="-621.05307" x="242.434 245.54433 249.5194">(3)</tspan></text>
<text xml:space="preserve" transform="matrix(1 0 -0 1 -148.30402 532.963)" font-size="9.9626" font-family="CMMI10" font-style="italic"><tspan y="-572.083" x="186.899">&#x03b1;</tspan></text>
<text xml:space="preserve" transform="matrix(1 0 -0 1 -148.30402 532.963)" font-size="6.9738" font-family="CMR7"><tspan y="-575.69906" x="193.309 196.41933 200.3944">(1)</tspan></text>
<text xml:space="preserve" transform="matrix(1 0 -0 1 -148.30402 532.963)" font-size="9.9626" font-family="CMSY10" font-style="italic"><tspan y="-572.083" x="206.21901">&#x2212;</tspan></text>
<text xml:space="preserve" transform="matrix(1 0 -0 1 -148.30402 532.963)" font-size="9.9626" font-family="CMMI10" font-style="italic"><tspan y="-572.083" x="216.18102">&#x03b1;</tspan></text>
<text xml:space="preserve" transform="matrix(1 0 -0 1 -148.30402 532.963)" font-size="6.9738" font-family="CMR7"><tspan y="-575.69906" x="222.59102 225.70134 229.6764">(3)</tspan></text>
<path transform="matrix(1,0,0,-1,71.925998,-77.14398)" stroke-width=".79701" stroke-linecap="butt" stroke-miterlimit="10" stroke-linejoin="miter" fill="none" stroke="#000000" d="M16.95792-22.8707 38.86234-17.00143"/>
<path transform="matrix(1,0,0,-1,71.925998,-77.14398)" stroke-width=".79701" stroke-linecap="butt" stroke-miterlimit="10" stroke-linejoin="miter" fill="none" stroke="#000000" d="M15.4906-17.39459 37.395-11.52533"/>
<path transform="matrix(1,0,0,-1,71.925998,-77.14398)" stroke-width=".79701" stroke-linecap="butt" stroke-miterlimit="10" stroke-linejoin="miter" fill="none" stroke="#000000" d="M14.02328-11.9185 35.92769-6.04922"/>
<path transform="matrix(1,0,0,-1,71.925998,-77.14398)" stroke-width=".79701" stroke-linecap="butt" stroke-miterlimit="10" stroke-linejoin="miter" fill="none" stroke="#000000" d="M23.90134-26.87949 18.03206-4.97508"/>
<path transform="matrix(1,0,0,-1,71.925998,-77.14398)" stroke-width=".79701" stroke-linecap="butt" stroke-miterlimit="10" stroke-linejoin="miter" fill="none" stroke="#000000" d="M29.37744-25.41217 23.50816-3.50775"/>
<path transform="matrix(1,0,0,-1,71.925998,-77.14398)" stroke-width=".79701" stroke-linecap="butt" stroke-miterlimit="10" stroke-linejoin="miter" fill="none" stroke="#000000" d="M34.85353-23.94485 28.98427-2.04045"/>
<path transform="matrix(1,0,0,-1,71.925998,-77.14398)" stroke-width=".79701" stroke-linecap="butt" stroke-miterlimit="10" stroke-linejoin="miter" fill="none" stroke="#000000" d="M10.16461 23.85144 26.19975 39.88658"/>
<path transform="matrix(1,0,0,-1,71.925998,-77.14398)" stroke-width=".79701" stroke-linecap="butt" stroke-miterlimit="10" stroke-linejoin="miter" fill="none" stroke="#000000" d="M6.15582 27.86023 22.19096 43.89537"/>
<path transform="matrix(1,0,0,-1,71.925998,-77.14398)" stroke-width=".79701" stroke-linecap="butt" stroke-miterlimit="10" stroke-linejoin="miter" fill="none" stroke="#000000" d="M2.14705 31.869 18.18217 47.90414"/>
<path transform="matrix(1,0,0,-1,71.925998,-77.14398)" stroke-width=".79701" stroke-linecap="butt" stroke-miterlimit="10" stroke-linejoin="miter" fill="none" stroke="#000000" d="M18.18216 23.85144 2.14703 39.88658"/>
<path transform="matrix(1,0,0,-1,71.925998,-77.14398)" stroke-width=".79701" stroke-linecap="butt" stroke-miterlimit="10" stroke-linejoin="miter" fill="none" stroke="#000000" d="M22.19096 27.86023 6.15582 43.89537"/>
<path transform="matrix(1,0,0,-1,71.925998,-77.14398)" stroke-width=".79701" stroke-linecap="butt" stroke-miterlimit="10" stroke-linejoin="miter" fill="none" stroke="#000000" d="M26.19974 31.869 10.1646 47.90414"/>
<path transform="matrix(1,0,0,-1,71.925998,-77.14398)" stroke-width=".79701" stroke-linecap="butt" stroke-miterlimit="10" stroke-linejoin="miter" fill="none" stroke="#000000" d="M-35.09161-26.40778-27.33548-5.09818"/>
<path transform="matrix(1,0,0,-1,71.925998,-77.14398)" stroke-width=".79701" stroke-linecap="butt" stroke-miterlimit="10" stroke-linejoin="miter" fill="none" stroke="#000000" d="M-40.419-24.46873-32.66287-3.15913"/>
<path transform="matrix(1,0,0,-1,71.925998,-77.14398)" stroke-width=".79701" stroke-linecap="butt" stroke-miterlimit="10" stroke-linejoin="miter" fill="none" stroke="#000000" d="M-45.74641-22.52971-37.99026-1.22011"/>
<path transform="matrix(1,0,0,-1,71.925998,-77.14398)" stroke-width=".79701" stroke-linecap="butt" stroke-miterlimit="10" stroke-linejoin="miter" fill="none" stroke="#000000" d="M-27.8252-23.01941-49.1348-15.26326"/>
<path transform="matrix(1,0,0,-1,71.925998,-77.14398)" stroke-width=".79701" stroke-linecap="butt" stroke-miterlimit="10" stroke-linejoin="miter" fill="none" stroke="#000000" d="M-25.88615-17.69202-47.19576-9.93587"/>
<path transform="matrix(1,0,0,-1,71.925998,-77.14398)" stroke-width=".79701" stroke-linecap="butt" stroke-miterlimit="10" stroke-linejoin="miter" fill="none" stroke="#000000" d="M-23.94713-12.36461-45.25673-4.60847"/>
<path transform="matrix(1,0,0,-1,71.925998,-77.14398)" d="M2.98883 0C2.98883 1.6507 1.6507 2.98883 0 2.98883-1.6507 2.98883-2.98883 1.6507-2.98883 0-2.98883-1.6507-1.6507-2.98883 0-2.98883 1.6507-2.98883 2.98883-1.6507 2.98883 0ZM0 0" fill="#0000ff"/>
<path transform="matrix(1,0,0,-1,71.673,57.961015)" stroke-width=".79701" stroke-linecap="butt" stroke-miterlimit="10" stroke-linejoin="miter" fill="none" stroke="#413c97" d="M70.86703 0C70.86703 31.31142 39.13928 56.69363 0 56.69363-39.13928 56.69363-70.86703 31.31142-70.86703 0-70.86703-31.31142-39.13928-56.69363 0-56.69363 39.13928-56.69363 70.86703-31.31142 70.86703 0ZM0 0"/>
<text fill="#413c97" xml:space="preserve" transform="matrix(1 0 -0 1 -148.304 532.963)" font-size="9.9626" font-family="CMMIB10" font-weight="bold" font-style="italic"><tspan y="-469.677" x="196.568">a</tspan></text>
<text fill="#413c97" xml:space="preserve" transform="matrix(1 0 -0 1 -148.304 532.963)" font-size="9.9626" font-family="CMR10"><tspan y="-469.677" x="202.87299">(</tspan></text>
<text fill="#413c97" xml:space="preserve" transform="matrix(1 0 -0 1 -148.304 532.963)" font-size="9.9626" font-family="CMMI10" font-style="italic"><tspan y="-469.677" x="206.74698">t</tspan></text>
<text fill="#413c97" xml:space="preserve" transform="matrix(1 0 -0 1 -148.304 532.963)" font-size="9.9626" font-family="CMR10"><tspan y="-469.677" x="210.34499">)</tspan></text>
<text xml:space="preserve" transform="matrix(1 0 -0 1 -148.30402 532.963)" font-size="9.9626" font-family="CMMI10" font-style="italic"><tspan y="-467.745" x="155.466">&#x03b1;</tspan></text>
<text xml:space="preserve" transform="matrix(1 0 -0 1 -148.30402 532.963)" font-size="6.9738" font-family="CMR7"><tspan y="-471.36" x="161.876 164.98633 168.9614">(1)</tspan></text>
<text xml:space="preserve" transform="matrix(1 0 -0 1 -148.304 532.963)" font-size="9.9626" font-family="CMMI10" font-style="italic"><tspan y="-508.564" x="246.174">&#x03b1;</tspan></text>
<text xml:space="preserve" transform="matrix(1 0 -0 1 -148.304 532.963)" font-size="6.9738" font-family="CMR7"><tspan y="-512.179" x="252.584 255.69432 259.66938">(2)</tspan></text>
<text xml:space="preserve" transform="matrix(1 0 -0 1 -148.30402 532.963)" font-size="9.9626" font-family="CMMI10" font-style="italic"><tspan y="-456.406" x="261.765">&#x03b1;</tspan></text>
<text xml:space="preserve" transform="matrix(1 0 -0 1 -148.30402 532.963)" font-size="6.9738" font-family="CMR7"><tspan y="-460.022" x="268.17503 271.28535 275.2604">(3)</tspan></text>
<path transform="matrix(1,0,0,-1,71.673,57.961015)" stroke-width=".79701" stroke-linecap="butt" stroke-miterlimit="10" stroke-linejoin="miter" fill="none" stroke="#413c97" d="M0 0 54.28653 36.44217"/>
<path transform="matrix(1,0,0,-1,71.673,57.961015)" stroke-width=".79701" stroke-linecap="butt" stroke-miterlimit="10" stroke-linejoin="miter" fill="none" stroke="#413c97" d="M0 0-42.6491 45.27806"/>
<path transform="matrix(1,0,0,-1,71.673,57.961015)" stroke-width=".79701" stroke-linecap="butt" stroke-miterlimit="10" stroke-linejoin="miter" fill="none" stroke="#413c97" d="M0 0-15.94116-55.24028"/>
<text xml:space="preserve" transform="matrix(1 0 -0 1 -148.304 532.963)" font-size="9.9626" font-family="CMMI10" font-style="italic"><tspan y="-502.176" x="168.788">&#x03b1;</tspan></text>
<text xml:space="preserve" transform="matrix(1 0 -0 1 -148.304 532.963)" font-size="6.9738" font-family="CMR7"><tspan y="-505.791" x="175.198 178.30832 182.28339">(2)</tspan></text>
<text xml:space="preserve" transform="matrix(1 0 -0 1 -148.304 532.963)" font-size="9.9626" font-family="CMSY10" font-style="italic"><tspan y="-502.176" x="188.108">&#x2212;</tspan></text>
<text xml:space="preserve" transform="matrix(1 0 -0 1 -148.304 532.963)" font-size="9.9626" font-family="CMMI10" font-style="italic"><tspan y="-502.176" x="198.071">&#x03b1;</tspan></text>
<text xml:space="preserve" transform="matrix(1 0 -0 1 -148.304 532.963)" font-size="6.9738" font-family="CMR7"><tspan y="-505.791" x="204.481 207.59133 211.56639">(1)</tspan></text>
<text xml:space="preserve" transform="matrix(1 0 -0 1 -148.30402 532.963)" font-size="9.9626" font-family="CMMI10" font-style="italic"><tspan y="-486.585" x="217.828">&#x03b1;</tspan></text>
<text xml:space="preserve" transform="matrix(1 0 -0 1 -148.30402 532.963)" font-size="6.9738" font-family="CMR7"><tspan y="-490.19999" x="224.238 227.34833 231.3234">(3)</tspan></text>
<text xml:space="preserve" transform="matrix(1 0 -0 1 -148.30402 532.963)" font-size="9.9626" font-family="CMSY10" font-style="italic"><tspan y="-486.585" x="237.147">&#x2212;</tspan></text>
<text xml:space="preserve" transform="matrix(1 0 -0 1 -148.30402 532.963)" font-size="9.9626" font-family="CMMI10" font-style="italic"><tspan y="-486.585" x="247.11">&#x03b1;</tspan></text>
<text xml:space="preserve" transform="matrix(1 0 -0 1 -148.30402 532.963)" font-size="6.9738" font-family="CMR7"><tspan y="-490.19999" x="253.52 256.6303 260.60539">(2)</tspan></text>
<text xml:space="preserve" transform="matrix(1 0 -0 1 -148.304 532.963)" font-size="9.9626" font-family="CMMI10" font-style="italic"><tspan y="-431.31" x="184.946">&#x03b1;</tspan></text>
<text xml:space="preserve" transform="matrix(1 0 -0 1 -148.304 532.963)" font-size="6.9738" font-family="CMR7"><tspan y="-434.925" x="191.356 194.46633 198.44139">(1)</tspan></text>
<text xml:space="preserve" transform="matrix(1 0 -0 1 -148.304 532.963)" font-size="9.9626" font-family="CMSY10" font-style="italic"><tspan y="-431.31" x="204.266">&#x2212;</tspan></text>
<text xml:space="preserve" transform="matrix(1 0 -0 1 -148.304 532.963)" font-size="9.9626" font-family="CMMI10" font-style="italic"><tspan y="-431.31" x="214.22801">&#x03b1;</tspan></text>
<text xml:space="preserve" transform="matrix(1 0 -0 1 -148.304 532.963)" font-size="6.9738" font-family="CMR7"><tspan y="-434.925" x="220.63802 223.74834 227.7234">(3)</tspan></text>
<path transform="matrix(1,0,0,-1,71.673,57.961015)" stroke-width=".79701" stroke-linecap="butt" stroke-miterlimit="10" stroke-linejoin="miter" fill="none" stroke="#000000" d="M16.95792-22.8707 38.86234-17.00143"/>
<path transform="matrix(1,0,0,-1,71.673,57.961015)" stroke-width=".79701" stroke-linecap="butt" stroke-miterlimit="10" stroke-linejoin="miter" fill="none" stroke="#000000" d="M15.4906-17.39459 37.395-11.52533"/>
<path transform="matrix(1,0,0,-1,71.673,57.961015)" stroke-width=".79701" stroke-linecap="butt" stroke-miterlimit="10" stroke-linejoin="miter" fill="none" stroke="#000000" d="M14.02328-11.9185 35.92769-6.04922"/>
<path transform="matrix(1,0,0,-1,71.673,57.961015)" stroke-width=".79701" stroke-linecap="butt" stroke-miterlimit="10" stroke-linejoin="miter" fill="none" stroke="#000000" d="M23.90134-26.87949 18.03206-4.97508"/>
<path transform="matrix(1,0,0,-1,71.673,57.961015)" stroke-width=".79701" stroke-linecap="butt" stroke-miterlimit="10" stroke-linejoin="miter" fill="none" stroke="#000000" d="M29.37744-25.41217 23.50816-3.50775"/>
<path transform="matrix(1,0,0,-1,71.673,57.961015)" stroke-width=".79701" stroke-linecap="butt" stroke-miterlimit="10" stroke-linejoin="miter" fill="none" stroke="#000000" d="M34.85353-23.94485 28.98427-2.04045"/>
<path transform="matrix(1,0,0,-1,71.673,57.961015)" stroke-width=".79701" stroke-linecap="butt" stroke-miterlimit="10" stroke-linejoin="miter" fill="none" stroke="#000000" d="M5.25235 27.3215 23.82835 40.32858"/>
<path transform="matrix(1,0,0,-1,71.673,57.961015)" stroke-width=".79701" stroke-linecap="butt" stroke-miterlimit="10" stroke-linejoin="miter" fill="none" stroke="#000000" d="M2.0006 31.96552 20.57658 44.97258"/>
<path transform="matrix(1,0,0,-1,71.673,57.961015)" stroke-width=".79701" stroke-linecap="butt" stroke-miterlimit="10" stroke-linejoin="miter" fill="none" stroke="#000000" d="M-1.25117 36.6095 17.3248 49.61658"/>
<path transform="matrix(1,0,0,-1,71.673,57.961015)" stroke-width=".79701" stroke-linecap="butt" stroke-miterlimit="10" stroke-linejoin="miter" fill="none" stroke="#000000" d="M13.1481 25.92928 .14104 44.50528"/>
<path transform="matrix(1,0,0,-1,71.673,57.961015)" stroke-width=".79701" stroke-linecap="butt" stroke-miterlimit="10" stroke-linejoin="miter" fill="none" stroke="#000000" d="M17.79211 29.18105 4.78505 47.75703"/>
<path transform="matrix(1,0,0,-1,71.673,57.961015)" stroke-width=".79701" stroke-linecap="butt" stroke-miterlimit="10" stroke-linejoin="miter" fill="none" stroke="#000000" d="M22.43611 32.43282 9.42903 51.00882"/>
<path transform="matrix(1,0,0,-1,71.673,57.961015)" stroke-width=".79701" stroke-linecap="butt" stroke-miterlimit="10" stroke-linejoin="miter" fill="none" stroke="#000000" d="M-35.09161-26.40778-27.33548-5.09818"/>
<path transform="matrix(1,0,0,-1,71.673,57.961015)" stroke-width=".79701" stroke-linecap="butt" stroke-miterlimit="10" stroke-linejoin="miter" fill="none" stroke="#000000" d="M-40.419-24.46873-32.66287-3.15913"/>
<path transform="matrix(1,0,0,-1,71.673,57.961015)" stroke-width=".79701" stroke-linecap="butt" stroke-miterlimit="10" stroke-linejoin="miter" fill="none" stroke="#000000" d="M-45.74641-22.52971-37.99026-1.22011"/>
<path transform="matrix(1,0,0,-1,71.673,57.961015)" stroke-width=".79701" stroke-linecap="butt" stroke-miterlimit="10" stroke-linejoin="miter" fill="none" stroke="#000000" d="M-27.8252-23.01941-49.1348-15.26326"/>
<path transform="matrix(1,0,0,-1,71.673,57.961015)" stroke-width=".79701" stroke-linecap="butt" stroke-miterlimit="10" stroke-linejoin="miter" fill="none" stroke="#000000" d="M-25.88615-17.69202-47.19576-9.93587"/>
<path transform="matrix(1,0,0,-1,71.673,57.961015)" stroke-width=".79701" stroke-linecap="butt" stroke-miterlimit="10" stroke-linejoin="miter" fill="none" stroke="#000000" d="M-23.94713-12.36461-45.25673-4.60847"/>
<path transform="matrix(1,0,0,-1,71.673,57.961015)" d="M2.98883 0C2.98883 1.6507 1.6507 2.98883 0 2.98883-1.6507 2.98883-2.98883 1.6507-2.98883 0-2.98883-1.6507-1.6507-2.98883 0-2.98883 1.6507-2.98883 2.98883-1.6507 2.98883 0ZM0 0" fill="#413c97"/>
<text xml:space="preserve" transform="matrix(1 0 -0 1 -148.30402 532.963)" font-size="9.9626" font-family="CMR10"><tspan y="-89.365" x="303.133">1</tspan></text>
</g>
</svg>
