<?xml version="1.0" encoding="UTF-8" standalone="no"?>
<svg
   xmlns:dc="http://purl.org/dc/elements/1.1/"
   xmlns:cc="http://creativecommons.org/ns#"
   xmlns:rdf="http://www.w3.org/1999/02/22-rdf-syntax-ns#"
   xmlns:svg="http://www.w3.org/2000/svg"
   xmlns="http://www.w3.org/2000/svg"
   xmlns:sodipodi="http://sodipodi.sourceforge.net/DTD/sodipodi-0.dtd"
   xmlns:inkscape="http://www.inkscape.org/namespaces/inkscape"
   width="127mm"
   height="114mm"
   viewBox="0 0 127 114"
   version="1.1"
   id="svg8"
   sodipodi:docname="figure.svg"
   inkscape:version="1.0.1 (3bc2e813f5, 2020-09-07)">
  <defs
     id="defs2">
    <marker
       style="overflow:visible"
       id="Arrow1Lstart"
       refX="0"
       refY="0"
       orient="auto"
       inkscape:stockid="Arrow1Lstart"
       inkscape:isstock="true">
      <path
         transform="matrix(0.8,0,0,0.8,10,0)"
         style="fill-rule:evenodd;stroke:#000000;stroke-width:1pt"
         d="M 0,0 5,-5 -12.5,0 5,5 Z"
         id="path851" />
    </marker>
    <pattern
       id="Voronoi3611"
       width="124.01306"
       height="111.18412000000001"
       patternUnits="userSpaceOnUse"
       patternTransform="translate(15.2344, 22.1834)">
      <path
         d="M 7.398,0.538 8.424,0.388 M 8.424,0.388 9.210,0.000 M 37.536,0.000 45.328,9.611 M 45.328,9.611 53.005,9.003 M 49.274,0.000 53.005,9.003 M 33.366,0.000 33.531,9.863 M 0.000,6.172 7.398,0.538 M 109.398,0.000 110.201,1.909 M 59.870,0.000 62.048,10.543 M 53.005,9.003 57.175,11.802 M 57.175,11.802 62.048,10.543 M 62.048,10.543 63.910,11.032 M 72.162,0.000 74.625,10.403 M 74.625,10.403 81.153,10.539 M 81.153,10.539 90.604,0.000 M 8.424,0.388 15.216,13.907 M 15.216,13.907 22.103,0.000 M 0.000,9.556 4.572,14.411 M 110.201,1.909 124.013,8.466 M 63.910,11.032 71.428,12.080 M 71.428,12.080 74.625,10.403 M 16.481,16.802 33.531,9.863 M 14.556,15.732 15.216,13.907 M 14.556,15.732 16.481,16.802 M 4.572,14.411 12.982,16.209 M 12.982,16.209 14.556,15.732 M 16.481,16.802 20.758,20.401 M 51.156,21.153 57.175,11.802 M 70.091,22.480 71.428,12.080 M 70.091,22.480 71.050,23.928 M 81.153,10.539 88.242,20.624 M 51.156,21.153 56.385,26.804 M 56.385,26.804 59.492,27.284 M 59.492,27.284 63.910,11.032 M 120.690,25.878 124.013,21.051 M 0.000,21.051 4.572,14.411 M 59.492,27.284 62.191,28.325 M 62.191,28.325 70.091,22.480 M 88.242,20.624 104.958,21.186 M 104.958,21.186 110.201,1.909 M 85.951,27.006 88.242,20.624 M 71.050,23.928 81.803,29.467 M 81.803,29.467 85.951,27.006 M 38.967,23.388 45.328,9.611 M 38.967,23.388 51.156,21.153 M 110.685,25.828 120.690,25.878 M 33.531,9.863 37.974,23.871 M 37.974,23.871 38.967,23.388 M 62.191,28.325 63.431,32.544 M 104.958,21.186 106.628,24.689 M 106.628,24.689 110.685,25.828 M 37.497,24.591 37.974,23.871 M 9.248,31.487 12.982,16.209 M 20.758,20.401 34.168,26.045 M 34.168,26.045 37.497,24.591 M 9.248,31.487 17.663,33.757 M 17.663,33.757 20.758,20.401 M 85.951,27.006 90.400,34.162 M 90.400,34.162 90.737,34.320 M 37.497,24.591 44.260,34.100 M 63.431,32.544 72.235,35.523 M 71.050,23.928 72.235,35.523 M 90.737,34.320 104.097,32.135 M 104.097,32.135 106.628,24.689 M 44.260,34.100 52.060,36.251 M 52.060,36.251 56.385,26.804 M 0.000,30.084 4.054,35.216 M 4.054,35.216 9.248,31.487 M 104.097,32.135 104.383,36.344 M 104.262,36.593 104.383,36.344 M 72.235,35.523 75.587,39.285 M 75.587,39.285 81.803,29.467 M 70.894,41.832 75.593,39.353 M 75.587,39.285 75.593,39.353 M 58.598,41.413 63.431,32.544 M 58.598,41.413 70.894,41.832 M 101.024,42.459 104.262,36.593 M 68.142,48.241 70.894,41.832 M 52.060,36.251 56.756,42.525 M 56.756,42.525 58.598,41.413 M 26.365,40.125 34.168,26.045 M 90.737,34.320 94.974,44.814 M 94.974,44.814 101.024,42.459 M 17.663,33.757 25.246,40.721 M 25.246,40.721 26.365,40.125 M 2.604,41.547 4.054,35.216 M 110.685,25.828 120.830,43.665 M 120.830,43.665 124.013,42.500 M 120.690,25.878 124.013,30.084 M 75.593,39.353 80.875,44.794 M 80.875,44.794 90.400,34.162 M 104.383,36.344 119.318,44.759 M 119.318,44.759 120.830,43.665 M 80.875,44.794 81.216,45.510 M 55.886,45.820 56.756,42.525 M 55.886,45.820 68.142,48.241 M 26.365,40.125 40.892,47.103 M 40.892,47.103 44.260,34.100 M 81.216,45.510 82.490,46.799 M 22.216,45.357 25.246,40.721 M 2.604,41.547 11.054,48.272 M 11.054,48.272 22.216,45.357 M 11.031,48.404 11.054,48.272 M 69.660,53.949 81.216,45.510 M 82.490,46.799 90.128,50.087 M 90.128,50.087 94.974,44.814 M 68.142,48.241 69.075,54.096 M 69.075,54.096 69.660,53.949 M 69.660,53.949 78.136,57.024 M 78.136,57.024 82.490,46.799 M 101.024,42.459 108.655,53.628 M 0.444,58.094 11.031,48.404 M 114.467,53.615 119.318,44.759 M 114.467,53.615 124.013,57.895 M 104.262,36.593 113.997,53.937 M 113.997,53.937 114.467,53.615 M 108.655,53.628 113.456,54.342 M 113.456,54.342 113.997,53.937 M 90.128,50.087 92.405,56.131 M 78.136,57.024 78.763,61.191 M 113.456,54.342 113.463,58.011 M 112.721,59.995 113.463,58.011 M 74.869,62.754 78.763,61.191 M 72.488,62.688 74.869,62.754 M 64.813,58.761 69.075,54.096 M 64.813,58.761 72.488,62.688 M 92.405,56.131 96.495,58.742 M 96.495,58.742 108.655,53.628 M 0.000,42.500 2.604,41.547 M 0.000,57.895 0.444,58.094 M 22.216,45.357 28.173,59.754 M 78.763,61.191 83.614,63.408 M 83.614,63.408 92.405,56.131 M 11.031,48.404 12.604,62.893 M 83.614,63.408 83.814,66.125 M 0.444,58.094 4.450,64.998 M 4.450,64.998 12.604,62.893 M 12.604,62.893 15.240,64.542 M 15.240,64.542 28.173,59.754 M 83.814,66.125 93.325,69.712 M 102.231,68.341 112.721,59.995 M 102.231,68.341 112.854,70.416 M 112.721,59.995 112.854,70.416 M 1.622,68.710 4.450,64.998 M 49.441,59.076 55.886,45.820 M 40.892,47.103 48.311,59.122 M 48.311,59.122 49.441,59.076 M 113.463,58.011 123.747,69.593 M 123.747,69.593 124.013,69.469 M 93.325,69.712 98.890,68.722 M 96.495,58.742 98.890,68.722 M 49.441,59.076 53.948,61.669 M 53.948,61.669 64.813,58.761 M 98.890,68.722 99.135,69.005 M 99.135,69.005 102.231,68.341 M 0.000,69.469 1.622,68.710 M 121.818,71.825 123.747,69.593 M 112.854,70.416 114.767,73.196 M 114.767,73.196 121.818,71.825 M 28.173,59.754 38.606,65.016 M 38.606,65.016 48.311,59.122 M 37.569,68.235 38.606,65.016 M 85.126,76.169 93.325,69.712 M 80.769,75.463 83.814,66.125 M 80.769,75.463 85.126,76.169 M 74.869,62.754 77.548,77.239 M 77.548,77.239 80.769,75.463 M 69.539,77.888 72.488,62.688 M 53.948,61.669 61.506,76.517 M 69.539,77.888 75.722,78.762 M 75.722,78.762 77.548,77.239 M 61.506,76.517 64.995,78.143 M 64.995,78.143 69.539,77.888 M 1.622,68.710 13.696,80.861 M 21.641,80.432 37.569,68.235 M 15.240,64.542 17.652,80.484 M 17.652,80.484 21.641,80.432 M 0.000,79.132 1.679,84.721 M 1.679,84.721 13.696,80.861 M 13.696,80.861 16.980,80.948 M 16.980,80.948 17.652,80.484 M 108.685,84.303 114.767,73.196 M 99.135,69.005 100.757,83.475 M 100.757,83.475 108.685,84.303 M 85.126,76.169 98.881,84.696 M 98.881,84.696 100.757,83.475 M 16.017,90.563 16.980,80.948 M 16.017,90.563 22.734,95.354 M 14.952,92.341 16.017,90.563 M 75.722,78.762 80.450,90.583 M 80.450,90.583 83.692,92.655 M 21.215,99.874 22.734,95.354 M 14.952,92.341 20.643,100.140 M 20.643,100.140 21.215,99.874 M 10.912,97.225 14.952,92.341 M 10.912,97.225 19.101,101.609 M 19.101,101.609 20.643,100.140 M 37.569,68.235 44.594,91.346 M 44.594,91.346 61.506,76.517 M 22.734,95.354 35.485,94.054 M 21.641,80.432 35.485,94.054 M 83.692,92.655 92.436,94.177 M 92.436,94.177 98.881,84.696 M 8.039,98.945 10.912,97.225 M 78.089,103.468 83.692,92.655 M 64.905,97.801 64.995,78.143 M 64.905,97.801 65.235,98.048 M 65.235,98.048 80.450,90.583 M 121.818,71.825 124.013,79.132 M 1.925,98.712 8.039,98.945 M 108.685,84.303 121.291,94.607 M 121.291,94.607 124.013,93.801 M 65.235,98.048 66.694,101.950 M 66.694,101.950 70.823,105.528 M 70.823,105.528 78.089,103.468 M 43.253,96.410 44.594,91.346 M 43.253,96.410 64.905,97.801 M 0.000,86.658 1.679,84.721 M 0.000,98.253 1.925,98.712 M 8.039,98.945 14.132,108.753 M 35.485,94.054 42.068,97.648 M 42.068,97.648 43.253,96.410 M 9.210,111.184 14.132,108.753 M 1.925,98.712 7.172,111.184 M 59.849,111.081 66.694,101.950 M 47.023,105.750 59.849,111.081 M 41.534,100.137 42.068,97.648 M 41.534,100.137 47.023,105.750 M 14.132,108.753 18.762,110.481 M 18.762,110.481 19.101,101.609 M 21.215,99.874 36.637,106.276 M 36.637,106.276 41.534,100.137 M 18.762,110.481 19.508,111.184 M 33.844,111.184 36.637,106.276 M 78.089,103.468 87.192,111.184 M 92.436,94.177 97.979,111.184 M 111.452,111.184 121.291,94.607 M 47.023,105.750 49.274,111.184 M 59.849,111.081 59.870,111.184 M 70.823,105.528 72.162,111.184 M 7.172,0.000 7.398,0.538 M 124.013,27.816 124.013,27.816 "
         style="stroke:#000000;stroke-width:0.26458333333333334"
         id="path2278" />
    </pattern>
    <g
       id="g3770">
      <symbol
         overflow="visible"
         id="symbol4954">
        <path
           style="stroke:none"
           d=""
           id="path1825" />
      </symbol>
      <symbol
         overflow="visible"
         id="symbol4521">
        <path
           style="stroke:none"
           d="M 3.71875,-3.765625 C 3.53125,-4.140625 3.25,-4.40625 2.796875,-4.40625 c -1.15625,0 -2.390625,1.46875 -2.390625,2.921875 0,0.9375 0.546875,1.59375 1.3125,1.59375 0.203125,0 0.703125,-0.046875 1.296875,-0.75 0.078125,0.421875 0.4375,0.75 0.90625,0.75 0.359375,0 0.578125,-0.234375 0.75,-0.546875 0.15625,-0.359375 0.296875,-0.96875 0.296875,-0.984375 0,-0.109375 -0.09375,-0.109375 -0.125,-0.109375 -0.09375,0 -0.109375,0.046875 -0.140625,0.1875 -0.171875,0.640625 -0.34375,1.234375 -0.75,1.234375 -0.28125,0 -0.296875,-0.265625 -0.296875,-0.453125 0,-0.21875 0.015625,-0.3125 0.125,-0.75 C 3.890625,-1.71875 3.90625,-1.828125 4,-2.203125 L 4.359375,-3.59375 c 0.0625,-0.28125 0.0625,-0.296875 0.0625,-0.34375 0,-0.171875 -0.109375,-0.265625 -0.28125,-0.265625 -0.25,0 -0.390625,0.21875 -0.421875,0.4375 z M 3.078125,-1.1875 C 3.015625,-1 3.015625,-0.984375 2.875,-0.8125 2.4375,-0.265625 2.03125,-0.109375 1.75,-0.109375 c -0.5,0 -0.640625,-0.546875 -0.640625,-0.9375 0,-0.5 0.3125,-1.71875 0.546875,-2.1875 0.3125,-0.578125 0.75,-0.953125 1.15625,-0.953125 0.640625,0 0.78125,0.8125 0.78125,0.875 0,0.0625 -0.015625,0.125 -0.03125,0.171875 z m 0,0"
           id="path8308" />
      </symbol>
      <symbol
         overflow="visible"
         id="symbol5349">
        <path
           style="stroke:none"
           d="m 2.046875,-3.984375 h 0.9375 c 0.203125,0 0.3125,0 0.3125,-0.203125 0,-0.109375 -0.109375,-0.109375 -0.28125,-0.109375 h -0.875 C 2.5,-5.71875 2.546875,-5.90625 2.546875,-5.96875 c 0,-0.171875 -0.125,-0.265625 -0.296875,-0.265625 -0.03125,0 -0.3125,0 -0.390625,0.359375 L 1.46875,-4.296875 h -0.9375 c -0.203125,0 -0.296875,0 -0.296875,0.1875 0,0.125 0.078125,0.125 0.28125,0.125 h 0.875 C 0.671875,-1.15625 0.625,-0.984375 0.625,-0.8125 0.625,-0.265625 1,0.109375 1.546875,0.109375 2.5625,0.109375 3.125,-1.34375 3.125,-1.421875 3.125,-1.53125 3.046875,-1.53125 3.015625,-1.53125 2.921875,-1.53125 2.90625,-1.5 2.859375,-1.390625 2.4375,-0.34375 1.90625,-0.109375 1.5625,-0.109375 c -0.203125,0 -0.3125,-0.125 -0.3125,-0.453125 0,-0.25 0.03125,-0.3125 0.0625,-0.484375 z m 0,0"
           id="path7218" />
      </symbol>
      <symbol
         overflow="visible"
         id="symbol2404">
        <path
           style="stroke:none"
           d=""
           id="path908" />
      </symbol>
      <symbol
         overflow="visible"
         id="symbol2399">
        <path
           style="stroke:none"
           d="m 3.296875,2.390625 c 0,-0.03125 0,-0.046875 -0.171875,-0.21875 C 1.890625,0.921875 1.5625,-0.96875 1.5625,-2.5 c 0,-1.734375 0.375,-3.46875 1.609375,-4.703125 0.125,-0.125 0.125,-0.140625 0.125,-0.171875 0,-0.078125 -0.03125,-0.109375 -0.09375,-0.109375 -0.109375,0 -1,0.6875 -1.59375,1.953125 -0.5,1.09375 -0.625,2.203125 -0.625,3.03125 0,0.78125 0.109375,1.984375 0.65625,3.125 C 2.25,1.84375 3.09375,2.5 3.203125,2.5 c 0.0625,0 0.09375,-0.03125 0.09375,-0.109375 z m 0,0"
           id="path2471" />
      </symbol>
      <symbol
         overflow="visible"
         id="symbol8642">
        <path
           style="stroke:none"
           d="m 2.875,-2.5 c 0,-0.765625 -0.109375,-1.96875 -0.65625,-3.109375 -0.59375,-1.21875 -1.453125,-1.875 -1.546875,-1.875 -0.0625,0 -0.109375,0.046875 -0.109375,0.109375 0,0.03125 0,0.046875 0.1875,0.234375 0.984375,0.984375 1.546875,2.5625 1.546875,4.640625 0,1.71875 -0.359375,3.46875 -1.59375,4.71875 C 0.5625,2.34375 0.5625,2.359375 0.5625,2.390625 0.5625,2.453125 0.609375,2.5 0.671875,2.5 0.765625,2.5 1.671875,1.8125 2.25,0.546875 2.765625,-0.546875 2.875,-1.65625 2.875,-2.5 Z m 0,0"
           id="path7585" />
      </symbol>
    </g>
  </defs>
  <sodipodi:namedview
     id="base"
     pagecolor="#ffffff"
     bordercolor="#666666"
     borderopacity="1.0"
     inkscape:pageopacity="0.0"
     inkscape:pageshadow="2"
     inkscape:zoom="1.1088969"
     inkscape:cx="311.2546"
     inkscape:cy="127.02071"
     inkscape:document-units="mm"
     inkscape:current-layer="layer1"
     inkscape:document-rotation="0"
     showgrid="false"
     inkscape:snap-page="false"
     inkscape:snap-to-guides="false"
     inkscape:window-width="1838"
     inkscape:window-height="1057"
     inkscape:window-x="74"
     inkscape:window-y="-8"
     inkscape:window-maximized="1"
     showguides="true"
     inkscape:guide-bbox="true"
     inkscape:snap-smooth-nodes="false"
     inkscape:snap-midpoints="false"
     fit-margin-top="0"
     fit-margin-left="0"
     fit-margin-right="0"
     fit-margin-bottom="0"
     inkscape:snap-global="true">
    <sodipodi:guide
       position="83.248719,284.67925"
       orientation="0,-1"
       id="guide2376" />
  </sodipodi:namedview>
  <metadata
     id="metadata5">
    <rdf:RDF>
      <cc:Work
         rdf:about="">
        <dc:format>image/svg+xml</dc:format>
        <dc:type
           rdf:resource="http://purl.org/dc/dcmitype/StillImage" />
        <dc:title></dc:title>
      </cc:Work>
    </rdf:RDF>
  </metadata>
  <g
     inkscape:label="Layer 1"
     inkscape:groupmode="layer"
     id="layer1"
     transform="translate(-12.91941,-20.072733)">
    <rect
       style="fill:none;fill-opacity:1;fill-rule:evenodd;stroke:#000000;stroke-width:1.065;stroke-linecap:butt;stroke-linejoin:bevel;stroke-miterlimit:4;stroke-dasharray:none;stroke-dashoffset:0;stroke-opacity:1;paint-order:normal"
       id="rect833"
       width="124.01306"
       height="111.18412"
       x="14.439219"
       y="21.761642" />
    <path
       d="m 21.837294,22.299674 1.026004,-0.15 m 0,0 0.785997,-0.388 m 28.325998,0 7.792008,9.611 m 0,0 7.676995,-0.608 m -3.730999,-9.003 3.730999,9.003 m -19.638999,-9.003 0.165,9.863 m -33.531001,-3.691 7.397998,-5.634 m 101.999846,-0.538 0.803,1.909 m -50.330853,-1.909 2.177988,10.543 m -9.042979,-1.54 4.169996,2.799 m 0,0 4.872983,-1.259 m 0,0 1.861988,0.489 m 8.251955,-11.032 2.462985,10.403 m 0,0 6.527964,0.136 m 0,0 9.450973,-10.539 m -82.179842,0.388 6.792001,13.519 m 0,0 6.887001,-13.907 m -22.103004,9.556 4.571996,4.855 m 105.628848,-12.502 13.812,6.557 m -60.102877,2.566 7.517958,1.048 m 0,0 3.196982,-1.677 m -58.14391,6.399 17.050004,-6.939 m -18.975002,5.869 0.660004,-1.825 m -0.660004,1.825 1.924998,1.07 m -11.909001,-2.391 8.410002,1.798 m 0,0 1.574001,-0.477 m 1.924998,1.07 4.277006,3.599 m 30.397999,0.752 6.018994,-9.351 m 12.915938,10.678 1.336991,-10.4 m -1.336991,10.4 0.958994,1.448 m 10.102943,-13.389 7.088973,10.085 m -37.085842,0.529 5.229,5.651 m 0,0 3.106992,0.48 m 0,0 4.417973,-16.252 m 56.779877,14.846 3.323,-4.827 m -124.012844,0 4.571996,-6.64 m 54.919998,12.873 2.698985,1.041 m 0,0 7.899955,-5.845 m 18.15091,-1.856 16.716,0.562 m 0,0 5.243,-19.277 m -24.25,25.097 2.291,-6.382 m -17.191916,3.304 10.75294,5.539 m 0,0 4.147976,-2.461 m -46.983843,-3.618 6.361004,-13.777 m -6.361004,13.777 12.189001,-2.235 m 59.528842,4.675 10.005,0.05 m -87.158843,-16.015 4.443003,14.008 m 0,0 0.992997,-0.483 m 23.223978,4.937 1.239991,4.219 m 41.526874,-11.358 1.67,3.503 m 0,0 4.057,1.139 m -73.187847,-1.237 0.477007,-0.72 m -28.726005,7.616 3.733999,-15.278 m 7.776005,4.192 13.409995,5.644 m 0,0 3.328999,-1.454 m -28.248998,6.896 8.415002,2.27 m 0,0 3.095002,-13.356 m 65.192841,6.605 4.449,7.156 m 0,0 0.337,0.158 m -27.305874,-1.776 8.803952,2.979 m -1.184994,-11.595 1.184994,11.595 m 18.501922,-1.203 13.36,-2.185 m 0,0 2.531,-7.446 m -54.567848,11.562 4.325006,-9.447 m -56.385002,3.28 4.053999,5.132 m 0,0 5.194,-3.729 m 94.848845,0.648 0.286,4.209 m -0.121,0.249 0.121,-0.249 m -32.147922,-0.821 3.351979,3.762 m 0,0 6.215967,-9.818 m -10.90894,12.365 4.698973,-2.479 m -0.006,-0.068 0.006,0.068 m -16.994904,2.06 4.832973,-8.869 m -4.832973,8.869 12.295931,0.419 m 30.129916,0.627 3.238,-5.866 m -36.119901,11.648 2.751985,-6.409 m -18.833932,-5.581 4.696003,6.274 m 0,0 1.841998,-1.112 m -32.232997,-1.288 7.802998,-14.08 m 56.568846,8.275 4.237,10.494 m 0,0 6.05,-2.355 m -83.360843,-8.702 7.582995,6.964 m 0,0 1.119004,-0.596 m -23.760995,1.422 1.449994,-6.331 m 106.630845,-9.388 10.145,17.837 m 0,0 3.183,-1.165 m -3.323,-16.622 3.323,4.206 m -48.419943,9.269 5.28197,5.441 m 0,0 9.524973,-10.632 m 13.983,2.182 14.935,8.415 m 0,0 1.512,-1.094 m -39.954973,1.129 0.341,0.716 m -25.329866,0.31 0.869994,-3.295 m -0.869994,3.295 12.255938,2.421 m 13.073928,-2.731 1.273991,1.289 m -60.273858,-1.442 3.029992,-4.636 m -22.641991,0.826 8.449992,6.725 m 0,0 11.162007,-2.915 m -11.185007,3.047 0.023,-0.132 m 58.60594,5.677 11.555934,-8.439 m 1.273991,1.289 7.637982,3.288 m 0,0 4.846,-5.273 m -26.831901,3.427 0.932997,5.855 m 0,0 0.584997,-0.147 m 0,0 8.475952,3.075 m 0,0 4.353973,-10.225 m 18.533982,-4.34 7.631,11.169 m -108.210847,4.466 10.587,-9.69 m 103.435847,5.211 4.851,-8.856 m -4.851,8.856 9.546,4.28 m -19.751,-21.302 9.735,17.344 m 0,0 0.47,-0.322 m -5.812,0.013 4.801,0.714 m 0,0 0.541,-0.405 m -23.869,-3.85 2.277,6.044 m -14.268955,0.893 0.626994,4.167 m 34.692961,-6.849 0.007,3.669 m -0.742,1.984 0.742,-1.984 m -38.593937,4.743 3.893976,-1.563 m -6.274964,1.497 2.380988,0.066 m -10.055943,-3.993 4.261976,-4.665 m -4.261976,4.665 7.674955,3.927 m 19.916925,-6.557 4.09,2.611 m 0,0 12.16,-5.114 m -108.654844,-11.128 2.604005,-0.953 m -2.604005,16.348 0.443997,0.199 m 21.772007,-12.737 5.956997,14.397 m 50.589882,1.437 4.850973,2.217 m 0,0 8.790988,-7.277 m -81.373847,-7.727 1.573001,14.489 m 71.009858,0.515 0.2,2.717 m -83.369859,-8.031 4.005999,6.904 m 0,0 8.154002,-2.105 m 0,0 2.636005,1.649 m 0,0 12.932998,-4.788 m 55.640855,6.371 9.510988,3.586987 m 8.906,-1.370994 10.49,-8.345993 m -10.49,8.345993 10.623,2.074988 m -0.133,-10.420981 0.133,10.420981 M 16.061297,90.471667 18.889292,86.759674 m 44.991005,-5.922 6.445004,-13.256 m -7.575008,13.302 1.130004,-0.046 m 64.021843,-1.065 10.284,11.581987 m 0,0 0.266,-0.124 m -30.688,0.243 5.565,-0.989997 m -2.395,-9.97999 2.395,9.97999 m -49.448843,-9.64599 4.507003,2.593 m 0,0 10.86496,-2.908 m 34.07688,9.96099 0.245,0.283 m 0,0 3.096,-0.663997 m -102.230844,1.127994 1.622001,-0.758994 m 120.195843,3.114982 1.929,-2.231988 m -10.893,0.822994 1.913,2.779985 m 0,0 7.051,-1.370991 m -93.644843,-12.070975 10.433,5.262 m 0,0 9.704996,-5.894 m -10.742,9.112993 1.037004,-3.218993 m 46.519846,11.152948 8.198997,-6.456961 m -12.55597,5.750967 3.044982,-9.337954 m -3.044982,9.337954 4.356973,0.705994 m -10.25694,-13.414948 2.678985,14.484942 m 0,0 3.220982,-1.775988 m -11.229937,2.424985 2.948982,-15.199939 m -18.539915,-1.019 7.557978,14.847948 m 8.032955,1.370991 6.182964,0.873997 m 0,0 1.825991,-1.522994 m -16.04191,-0.721994 3.488979,1.625991 m 0,0 4.543976,-0.255 M 16.061297,90.471667 28.135298,102.62261 m 7.944995,-0.429 15.928,-12.196943 m -22.328994,-3.692993 2.411998,15.941936 m 0,0 3.988996,-0.052 m -21.640997,-1.3 1.679001,5.589 m 0,0 12.017001,-3.86 m 0,0 3.284002,0.087 m 0,0 0.671997,-0.464 m 91.032843,3.819 6.082,-11.10697 m -15.632,-4.190976 1.622,14.469946 m 0,0 7.928,0.828 m -23.558997,-8.133988 13.754997,8.526988 m 0,0 1.876,-1.221 m -84.739844,7.088 0.963004,-9.615 m -0.963004,9.615 6.717001,4.791 m -7.782005,-3.013 1.065004,-1.778 m 59.704901,-11.801 4.727973,11.821 m 0,0 3.241982,2.072 m -62.476856,7.219 1.519001,-4.52 m -7.782005,-3.013 5.691007,7.799 m 0,0 0.571997,-0.266 m -10.303,-2.649 4.039996,-4.884 m -4.039996,4.884 8.189002,4.384 m 0,0 1.542001,-1.469 m 16.925994,-31.904943 7.025001,23.110943 m 0,0 16.911984,-14.828988 m -38.771981,18.836988 12.750998,-1.3 m -13.844002,-13.622 13.844002,13.622 m 48.206857,-1.399 8.743988,1.522 m 0,0 6.445,-9.481 m -90.841839,14.249 2.872995,-1.72 m 67.176889,6.243 5.602967,-10.813 m -18.786892,5.146 0.09,-19.657997 m -0.09,19.657997 0.329997,0.247 m 0,0 15.214913,-7.465 m 41.36797,-18.757961 2.195,7.306961 m -122.087843,19.58 6.114004,0.233 m 100.645839,-14.642 12.606,10.304 m 0,0 2.722,-0.806 m -58.777883,4.247 1.458991,3.902 m 0,0 4.128976,3.578 m 0,0 7.265961,-2.06 m -34.835885,-7.058 1.340994,-5.064 m -1.340994,5.064 21.65196,1.391 m -64.904964,-11.143 1.679001,-1.937 m -1.679001,13.532 1.925001,0.459 m 6.114004,0.233 6.092994,9.808 m 21.353,-14.699 6.583004,3.594 m 0,0 1.185001,-1.238 m -34.043005,14.774 4.922,-2.431 m -12.206998,-10.041 5.247,12.472 m 52.67699,-0.103 6.844961,-9.131 m -19.670949,3.8 12.825988,5.331 m -18.314995,-10.944 0.534007,-2.489 m -0.534007,2.489 5.489007,5.613 m -32.891004,3.003 4.630006,1.728 m 0,0 0.338997,-8.872 m 2.113998,-1.735 15.422003,6.402 m 0,0 4.896993,-6.139 m -22.771991,10.344 0.745994,0.703 m 14.335999,0 2.793005,-4.908 m 41.451886,-2.808 9.102955,7.716 m 5.244,-17.007 5.543,17.007 m 13.473,0 9.839,-16.577 m -74.267841,11.143 2.250998,5.434 m 10.57499,-0.103 0.021,0.103 m 10.952937,-5.656 1.338994,5.656 M 21.611297,21.761674 l 0.225997,0.538 m 116.614846,27.278 v 0"
       style="fill:#f6fff4;fill-opacity:1;stroke:#000000;stroke-width:0.665;stroke-miterlimit:4;stroke-dasharray:none"
       id="path2316"
       inkscape:transform-center-x="-7.4835465"
       inkscape:transform-center-y="8.0180921"
       sodipodi:nodetypes="cccccccccccccccccccccccccccccccccccccccccccccccccccccccccccccccccccccccccccccccccccccccccccccccccccccccccccccccccccccccccccccccccccccccccccccccccccccccccccccccccccccccccccccccccccccccccccccccccccccccccccccccccccccccccccccccccccccccccccccccccccccccccccccccccccccccccccccccccccccccccccccccccccccccccccccccccccccccccccccccccccccccccccccccccccccccccccccccccccccccccccccccccccccccccccccccccccccccccccccccccccccccccccccccccccccccccccccccccccccccccccccccccccccccccccccccccccccccccc" />
    <path
       style="fill:none;stroke:#c54bd0;stroke-width:0.765;stroke-linecap:butt;stroke-linejoin:miter;stroke-miterlimit:4;stroke-dasharray:none;stroke-dashoffset:0;stroke-opacity:1"
       d="m 40.804296,61.886676 -1.119004,0.595998 -3.029992,4.636 5.956997,14.397 10.433,5.262002 9.704996,-5.894002 1.130004,-0.046 6.445004,-13.255998 0.869994,-3.295002 -4.696003,-6.273998 -7.799995,-2.151002 -6.763004,-9.508997 -3.328999,1.453999 -7.802998,14.08 14.526999,6.977999 1.628301,-6.286447 1.739701,-6.716554 -3.368002,13.003001 7.418998,12.018999 1.130004,-0.046 6.445004,-13.255998 0.869994,-3.295002 -4.696003,-6.273998 -7.799995,-2.151002 -6.763004,-9.508997 -3.328999,1.453999 z"
       id="path2378"
       sodipodi:nodetypes="ccccccccccccccccccccccccccc" />
  </g>
</svg>
