<?xml version="1.0" encoding="UTF-8" standalone="no"?>
<svg
   xmlns:dc="http://purl.org/dc/elements/1.1/"
   xmlns:cc="http://creativecommons.org/ns#"
   xmlns:rdf="http://www.w3.org/1999/02/22-rdf-syntax-ns#"
   xmlns:svg="http://www.w3.org/2000/svg"
   xmlns="http://www.w3.org/2000/svg"
   viewBox="0 0 656.49066 382.29468"
   height="382.29468"
   width="656.49066"
   xml:space="preserve"
   id="svg2"
   version="1.1"><metadata
     id="metadata8"><rdf:RDF><cc:Work
         rdf:about=""><dc:format>image/svg+xml</dc:format><dc:type
           rdf:resource="http://purl.org/dc/dcmitype/StillImage" /></cc:Work></rdf:RDF></metadata><defs
     id="defs6"><clipPath
       id="clipPath20"
       clipPathUnits="userSpaceOnUse"><path
         id="path18"
         d="M 0,0 H 612 V 792 H 0 Z" /></clipPath><clipPath
       id="clipPath30"
       clipPathUnits="userSpaceOnUse"><path
         id="path28"
         d="M 0,0 H 956.99996 V 511.99995 H 0 Z" /></clipPath></defs><g
     transform="matrix(1.3333333,0,0,-1.3333333,0,382.29467)"
     id="g10"><g
       transform="translate(-56.355,-246.242)"
       id="g12"><g
         id="g14"><g
           clip-path="url(#clipPath20)"
           id="g16"><g
             transform="matrix(0.125,0,0,-0.125,0,792)"
             id="g22"><g
               transform="matrix(4.8050156,0,0,4.8000002,148.79999,1939.2)"
               id="g24"><g
                 clip-path="url(#clipPath30)"
                 id="g26"><path
                   id="path32"
                   style="fill:#ffffff;fill-opacity:1;fill-rule:nonzero;stroke:none"
                   d="M 0,0 H 957 V 512 H 0 Z" /></g></g><g
               transform="matrix(4.8050156,0,0,4.8000002,148.79999,1939.2)"
               id="g34"><path
                 id="path36"
                 style="fill:#ffffff;fill-opacity:1;fill-rule:nonzero;stroke:none"
                 d="M 0,0 H 957 V 512 H 0 Z" /></g><g
               transform="matrix(4.8050156,0,0,4.8000002,148.79999,1939.2)"
               id="g38"><path
                 id="path40"
                 style="fill:#ffffff;fill-opacity:1;fill-rule:nonzero;stroke:none"
                 d="M 125,456 H 867 V 38 H 125 Z" /></g><g
               transform="matrix(4.8050156,0,0,4.8000002,148.79999,1939.2)"
               id="g42"><path
                 id="path44"
                 style="fill:none;stroke:#262626;stroke-width:0.83333302;stroke-linecap:square;stroke-linejoin:round;stroke-miterlimit:10;stroke-dasharray:none;stroke-opacity:1"
                 d="M 125,456 H 867" /></g><g
               transform="matrix(4.8050156,0,0,4.8000002,148.79999,1939.2)"
               id="g46"><path
                 id="path48"
                 style="fill:none;stroke:#262626;stroke-width:0.83333302;stroke-linecap:square;stroke-linejoin:round;stroke-miterlimit:10;stroke-dasharray:none;stroke-opacity:1"
                 d="M 125,38.000008 H 867" /></g><g
               transform="matrix(4.8050156,0,0,4.8000002,148.79999,1939.2)"
               id="g50"><path
                 id="path52"
                 style="fill:none;stroke:#262626;stroke-width:0.83333302;stroke-linecap:square;stroke-linejoin:round;stroke-miterlimit:10;stroke-dasharray:none;stroke-opacity:1"
                 d="m 125,456 v -7.42001" /></g><g
               transform="matrix(4.8050156,0,0,4.8000002,148.79999,1939.2)"
               id="g54"><path
                 id="path56"
                 style="fill:none;stroke:#262626;stroke-width:0.83333302;stroke-linecap:square;stroke-linejoin:round;stroke-miterlimit:10;stroke-dasharray:none;stroke-opacity:1"
                 d="m 248.66667,456 v -7.42001" /></g><g
               transform="matrix(4.8050156,0,0,4.8000002,148.79999,1939.2)"
               id="g58"><path
                 id="path60"
                 style="fill:none;stroke:#262626;stroke-width:0.83333302;stroke-linecap:square;stroke-linejoin:round;stroke-miterlimit:10;stroke-dasharray:none;stroke-opacity:1"
                 d="m 372.33334,456 v -7.42001" /></g><g
               transform="matrix(4.8050156,0,0,4.8000002,148.79999,1939.2)"
               id="g62"><path
                 id="path64"
                 style="fill:none;stroke:#262626;stroke-width:0.83333302;stroke-linecap:square;stroke-linejoin:round;stroke-miterlimit:10;stroke-dasharray:none;stroke-opacity:1"
                 d="m 496,456 v -7.42001" /></g><g
               transform="matrix(4.8050156,0,0,4.8000002,148.79999,1939.2)"
               id="g66"><path
                 id="path68"
                 style="fill:none;stroke:#262626;stroke-width:0.83333302;stroke-linecap:square;stroke-linejoin:round;stroke-miterlimit:10;stroke-dasharray:none;stroke-opacity:1"
                 d="m 619.66669,456 v -7.42001" /></g><g
               transform="matrix(4.8050156,0,0,4.8000002,148.79999,1939.2)"
               id="g70"><path
                 id="path72"
                 style="fill:none;stroke:#262626;stroke-width:0.83333302;stroke-linecap:square;stroke-linejoin:round;stroke-miterlimit:10;stroke-dasharray:none;stroke-opacity:1"
                 d="m 743.33331,456 v -7.42001" /></g><g
               transform="matrix(4.8050156,0,0,4.8000002,148.79999,1939.2)"
               id="g74"><path
                 id="path76"
                 style="fill:none;stroke:#262626;stroke-width:0.83333302;stroke-linecap:square;stroke-linejoin:round;stroke-miterlimit:10;stroke-dasharray:none;stroke-opacity:1"
                 d="m 867,456 v -7.42001" /></g><g
               transform="matrix(4.8050156,0,0,4.8000002,148.79999,1939.2)"
               id="g78"><path
                 id="path80"
                 style="fill:none;stroke:#262626;stroke-width:0.83333302;stroke-linecap:square;stroke-linejoin:round;stroke-miterlimit:10;stroke-dasharray:none;stroke-opacity:1"
                 d="m 125,38.000008 v 7.420013" /></g><g
               transform="matrix(4.8050156,0,0,4.8000002,148.79999,1939.2)"
               id="g82"><path
                 id="path84"
                 style="fill:none;stroke:#262626;stroke-width:0.83333302;stroke-linecap:square;stroke-linejoin:round;stroke-miterlimit:10;stroke-dasharray:none;stroke-opacity:1"
                 d="m 248.66667,38.000008 v 7.420013" /></g><g
               transform="matrix(4.8050156,0,0,4.8000002,148.79999,1939.2)"
               id="g86"><path
                 id="path88"
                 style="fill:none;stroke:#262626;stroke-width:0.83333302;stroke-linecap:square;stroke-linejoin:round;stroke-miterlimit:10;stroke-dasharray:none;stroke-opacity:1"
                 d="m 372.33334,38.000008 v 7.420013" /></g><g
               transform="matrix(4.8050156,0,0,4.8000002,148.79999,1939.2)"
               id="g90"><path
                 id="path92"
                 style="fill:none;stroke:#262626;stroke-width:0.83333302;stroke-linecap:square;stroke-linejoin:round;stroke-miterlimit:10;stroke-dasharray:none;stroke-opacity:1"
                 d="m 496,38.000008 v 7.420013" /></g><g
               transform="matrix(4.8050156,0,0,4.8000002,148.79999,1939.2)"
               id="g94"><path
                 id="path96"
                 style="fill:none;stroke:#262626;stroke-width:0.83333302;stroke-linecap:square;stroke-linejoin:round;stroke-miterlimit:10;stroke-dasharray:none;stroke-opacity:1"
                 d="m 619.66669,38.000008 v 7.420013" /></g><g
               transform="matrix(4.8050156,0,0,4.8000002,148.79999,1939.2)"
               id="g98"><path
                 id="path100"
                 style="fill:none;stroke:#262626;stroke-width:0.83333302;stroke-linecap:square;stroke-linejoin:round;stroke-miterlimit:10;stroke-dasharray:none;stroke-opacity:1"
                 d="m 743.33331,38.000008 v 7.420013" /></g><g
               transform="matrix(4.8050156,0,0,4.8000002,148.79999,1939.2)"
               id="g102"><path
                 id="path104"
                 style="fill:none;stroke:#262626;stroke-width:0.83333302;stroke-linecap:square;stroke-linejoin:round;stroke-miterlimit:10;stroke-dasharray:none;stroke-opacity:1"
                 d="m 867,38.000008 v 7.420013" /></g><g
               id="g106"><g
                 transform="matrix(4.8050156,0,0,4.8000002,749.42693,4160)"
                 id="g108"><text
                   id="text112"
                   style="font-variant:normal;font-weight:normal;font-size:16.66699982px;font-family:Helvetica;-inkscape-font-specification:Helvetica;writing-mode:lr-tb;fill:#262626;fill-opacity:1;fill-rule:nonzero;stroke:none"
                   transform="translate(-17,17)"><tspan
                     id="tspan110"
                     y="0"
                     x="0 5.5501108 14.816963 24.083815">-150</tspan></text>
</g></g><g
               id="g114"><g
                 transform="matrix(4.8050156,0,0,4.8000002,1343.6472,4160)"
                 id="g116"><text
                   id="text120"
                   style="font-variant:normal;font-weight:normal;font-size:16.66699982px;font-family:Helvetica;-inkscape-font-specification:Helvetica;writing-mode:lr-tb;fill:#262626;fill-opacity:1;fill-rule:nonzero;stroke:none"
                   transform="translate(-17,17)"><tspan
                     id="tspan118"
                     y="0"
                     x="0 5.5501108 14.816963 24.083815">-100</tspan></text>
</g></g><g
               id="g122"><g
                 transform="matrix(4.8050156,0,0,4.8000002,1937.8675,4160)"
                 id="g124"><text
                   id="text128"
                   style="font-variant:normal;font-weight:normal;font-size:16.66699982px;font-family:Helvetica;-inkscape-font-specification:Helvetica;writing-mode:lr-tb;fill:#262626;fill-opacity:1;fill-rule:nonzero;stroke:none"
                   transform="translate(-12.5,17)"><tspan
                     id="tspan126"
                     y="0"
                     x="0 5.5501108 14.816963">-50</tspan></text>
</g></g><g
               id="g130"><g
                 transform="matrix(4.8050156,0,0,4.8000002,2532.0877,4160)"
                 id="g132"><text
                   id="text136"
                   style="font-variant:normal;font-weight:normal;font-size:16.66699982px;font-family:Helvetica;-inkscape-font-specification:Helvetica;writing-mode:lr-tb;fill:#262626;fill-opacity:1;fill-rule:nonzero;stroke:none"
                   transform="translate(-5,17)"><tspan
                     id="tspan134"
                     y="0"
                     x="0">0</tspan></text>
</g></g><g
               id="g138"><g
                 transform="matrix(4.8050156,0,0,4.8000002,3126.3081,4160)"
                 id="g140"><text
                   id="text144"
                   style="font-variant:normal;font-weight:normal;font-size:16.66699982px;font-family:Helvetica;-inkscape-font-specification:Helvetica;writing-mode:lr-tb;fill:#262626;fill-opacity:1;fill-rule:nonzero;stroke:none"
                   transform="translate(-9.5,17)"><tspan
                     id="tspan142"
                     y="0"
                     x="0 9.2668524">50</tspan></text>
</g></g><g
               id="g146"><g
                 transform="matrix(4.8050156,0,0,4.8000002,3720.5281,4160)"
                 id="g148"><text
                   id="text152"
                   style="font-variant:normal;font-weight:normal;font-size:16.66699982px;font-family:Helvetica;-inkscape-font-specification:Helvetica;writing-mode:lr-tb;fill:#262626;fill-opacity:1;fill-rule:nonzero;stroke:none"
                   transform="translate(-14,17)"><tspan
                     id="tspan150"
                     y="0"
                     x="0 9.2668524 18.533705">100</tspan></text>
</g></g><g
               id="g154"><g
                 transform="matrix(4.8050156,0,0,4.8000002,4314.7485,4160)"
                 id="g156"><text
                   id="text160"
                   style="font-variant:normal;font-weight:normal;font-size:16.66699982px;font-family:Helvetica;-inkscape-font-specification:Helvetica;writing-mode:lr-tb;fill:#262626;fill-opacity:1;fill-rule:nonzero;stroke:none"
                   transform="translate(-14,17)"><tspan
                     id="tspan158"
                     y="0"
                     x="0 9.2668524 18.533705">150</tspan></text>
</g></g><g
               id="g162"><g
                 transform="matrix(4.8050156,0,0,4.8000002,2532.0895,4268.8001)"
                 id="g164"><text
                   id="text168"
                   style="font-variant:normal;font-weight:normal;font-size:18.33300018px;font-family:Helvetica;-inkscape-font-specification:Helvetica;writing-mode:lr-tb;fill:#262626;fill-opacity:1;fill-rule:nonzero;stroke:none"
                   transform="translate(-5,19)"><tspan
                     id="tspan166"
                     y="0"
                     x="0">x</tspan></text>
</g></g><g
               transform="matrix(4.8050156,0,0,4.8000002,148.79999,1939.2)"
               id="g170"><path
                 id="path172"
                 style="fill:none;stroke:#262626;stroke-width:0.83333302;stroke-linecap:square;stroke-linejoin:round;stroke-miterlimit:10;stroke-dasharray:none;stroke-opacity:1"
                 d="M 125,456 V 38.000008" /></g><g
               transform="matrix(4.8050156,0,0,4.8000002,148.79999,1939.2)"
               id="g174"><path
                 id="path176"
                 style="fill:none;stroke:#262626;stroke-width:0.83333302;stroke-linecap:square;stroke-linejoin:round;stroke-miterlimit:10;stroke-dasharray:none;stroke-opacity:1"
                 d="M 867,456 V 38.000008" /></g><g
               transform="matrix(4.8050156,0,0,4.8000002,148.79999,1939.2)"
               id="g178"><path
                 id="path180"
                 style="fill:none;stroke:#262626;stroke-width:0.83333302;stroke-linecap:square;stroke-linejoin:round;stroke-miterlimit:10;stroke-dasharray:none;stroke-opacity:1"
                 d="m 125,456 h 7.42" /></g><g
               transform="matrix(4.8050156,0,0,4.8000002,148.79999,1939.2)"
               id="g182"><path
                 id="path184"
                 style="fill:none;stroke:#262626;stroke-width:0.83333302;stroke-linecap:square;stroke-linejoin:round;stroke-miterlimit:10;stroke-dasharray:none;stroke-opacity:1"
                 d="m 125,403.75 h 7.42" /></g><g
               transform="matrix(4.8050156,0,0,4.8000002,148.79999,1939.2)"
               id="g186"><path
                 id="path188"
                 style="fill:none;stroke:#262626;stroke-width:0.83333302;stroke-linecap:square;stroke-linejoin:round;stroke-miterlimit:10;stroke-dasharray:none;stroke-opacity:1"
                 d="m 125,351.5 h 7.42" /></g><g
               transform="matrix(4.8050156,0,0,4.8000002,148.79999,1939.2)"
               id="g190"><path
                 id="path192"
                 style="fill:none;stroke:#262626;stroke-width:0.83333302;stroke-linecap:square;stroke-linejoin:round;stroke-miterlimit:10;stroke-dasharray:none;stroke-opacity:1"
                 d="m 125,299.25 h 7.42" /></g><g
               transform="matrix(4.8050156,0,0,4.8000002,148.79999,1939.2)"
               id="g194"><path
                 id="path196"
                 style="fill:none;stroke:#262626;stroke-width:0.83333302;stroke-linecap:square;stroke-linejoin:round;stroke-miterlimit:10;stroke-dasharray:none;stroke-opacity:1"
                 d="m 125,247 h 7.42" /></g><g
               transform="matrix(4.8050156,0,0,4.8000002,148.79999,1939.2)"
               id="g198"><path
                 id="path200"
                 style="fill:none;stroke:#262626;stroke-width:0.83333302;stroke-linecap:square;stroke-linejoin:round;stroke-miterlimit:10;stroke-dasharray:none;stroke-opacity:1"
                 d="m 125,194.75 h 7.42" /></g><g
               transform="matrix(4.8050156,0,0,4.8000002,148.79999,1939.2)"
               id="g202"><path
                 id="path204"
                 style="fill:none;stroke:#262626;stroke-width:0.83333302;stroke-linecap:square;stroke-linejoin:round;stroke-miterlimit:10;stroke-dasharray:none;stroke-opacity:1"
                 d="m 125,142.5 h 7.42" /></g><g
               transform="matrix(4.8050156,0,0,4.8000002,148.79999,1939.2)"
               id="g206"><path
                 id="path208"
                 style="fill:none;stroke:#262626;stroke-width:0.83333302;stroke-linecap:square;stroke-linejoin:round;stroke-miterlimit:10;stroke-dasharray:none;stroke-opacity:1"
                 d="m 125,90.249985 h 7.42" /></g><g
               transform="matrix(4.8050156,0,0,4.8000002,148.79999,1939.2)"
               id="g210"><path
                 id="path212"
                 style="fill:none;stroke:#262626;stroke-width:0.83333302;stroke-linecap:square;stroke-linejoin:round;stroke-miterlimit:10;stroke-dasharray:none;stroke-opacity:1"
                 d="m 125,38.000008 h 7.42" /></g><g
               transform="matrix(4.8050156,0,0,4.8000002,148.79999,1939.2)"
               id="g214"><path
                 id="path216"
                 style="fill:none;stroke:#262626;stroke-width:0.83333302;stroke-linecap:square;stroke-linejoin:round;stroke-miterlimit:10;stroke-dasharray:none;stroke-opacity:1"
                 d="m 867,456 h -7.41998" /></g><g
               transform="matrix(4.8050156,0,0,4.8000002,148.79999,1939.2)"
               id="g218"><path
                 id="path220"
                 style="fill:none;stroke:#262626;stroke-width:0.83333302;stroke-linecap:square;stroke-linejoin:round;stroke-miterlimit:10;stroke-dasharray:none;stroke-opacity:1"
                 d="m 867,403.75 h -7.41998" /></g><g
               transform="matrix(4.8050156,0,0,4.8000002,148.79999,1939.2)"
               id="g222"><path
                 id="path224"
                 style="fill:none;stroke:#262626;stroke-width:0.83333302;stroke-linecap:square;stroke-linejoin:round;stroke-miterlimit:10;stroke-dasharray:none;stroke-opacity:1"
                 d="m 867,351.5 h -7.41998" /></g><g
               transform="matrix(4.8050156,0,0,4.8000002,148.79999,1939.2)"
               id="g226"><path
                 id="path228"
                 style="fill:none;stroke:#262626;stroke-width:0.83333302;stroke-linecap:square;stroke-linejoin:round;stroke-miterlimit:10;stroke-dasharray:none;stroke-opacity:1"
                 d="m 867,299.25 h -7.41998" /></g><g
               transform="matrix(4.8050156,0,0,4.8000002,148.79999,1939.2)"
               id="g230"><path
                 id="path232"
                 style="fill:none;stroke:#262626;stroke-width:0.83333302;stroke-linecap:square;stroke-linejoin:round;stroke-miterlimit:10;stroke-dasharray:none;stroke-opacity:1"
                 d="m 867,247 h -7.41998" /></g><g
               transform="matrix(4.8050156,0,0,4.8000002,148.79999,1939.2)"
               id="g234"><path
                 id="path236"
                 style="fill:none;stroke:#262626;stroke-width:0.83333302;stroke-linecap:square;stroke-linejoin:round;stroke-miterlimit:10;stroke-dasharray:none;stroke-opacity:1"
                 d="m 867,194.75 h -7.41998" /></g><g
               transform="matrix(4.8050156,0,0,4.8000002,148.79999,1939.2)"
               id="g238"><path
                 id="path240"
                 style="fill:none;stroke:#262626;stroke-width:0.83333302;stroke-linecap:square;stroke-linejoin:round;stroke-miterlimit:10;stroke-dasharray:none;stroke-opacity:1"
                 d="m 867,142.5 h -7.41998" /></g><g
               transform="matrix(4.8050156,0,0,4.8000002,148.79999,1939.2)"
               id="g242"><path
                 id="path244"
                 style="fill:none;stroke:#262626;stroke-width:0.83333302;stroke-linecap:square;stroke-linejoin:round;stroke-miterlimit:10;stroke-dasharray:none;stroke-opacity:1"
                 d="m 867,90.249985 h -7.41998" /></g><g
               transform="matrix(4.8050156,0,0,4.8000002,148.79999,1939.2)"
               id="g246"><path
                 id="path248"
                 style="fill:none;stroke:#262626;stroke-width:0.83333302;stroke-linecap:square;stroke-linejoin:round;stroke-miterlimit:10;stroke-dasharray:none;stroke-opacity:1"
                 d="m 867,38.000008 h -7.41998" /></g><g
               id="g250"><g
                 transform="matrix(4.8050156,0,0,4.8000002,717.39347,4128)"
                 id="g252"><text
                   id="text256"
                   style="font-variant:normal;font-weight:normal;font-size:16.66699982px;font-family:Helvetica;-inkscape-font-specification:Helvetica;writing-mode:lr-tb;fill:#262626;fill-opacity:1;fill-rule:nonzero;stroke:none"
                   transform="translate(-29,6.5)"><tspan
                     id="tspan254"
                     y="0"
                     x="0 5.5501108 14.816963 19.45039">-0.2</tspan></text>
</g></g><g
               id="g258"><g
                 transform="matrix(4.8050156,0,0,4.8000002,717.39347,3877.2)"
                 id="g260"><text
                   id="text264"
                   style="font-variant:normal;font-weight:normal;font-size:16.66699982px;font-family:Helvetica;-inkscape-font-specification:Helvetica;writing-mode:lr-tb;fill:#262626;fill-opacity:1;fill-rule:nonzero;stroke:none"
                   transform="translate(-10,6.5)"><tspan
                     id="tspan262"
                     y="0"
                     x="0">0</tspan></text>
</g></g><g
               id="g266"><g
                 transform="matrix(4.8050156,0,0,4.8000002,717.39347,3626.4)"
                 id="g268"><text
                   id="text272"
                   style="font-variant:normal;font-weight:normal;font-size:16.66699982px;font-family:Helvetica;-inkscape-font-specification:Helvetica;writing-mode:lr-tb;fill:#262626;fill-opacity:1;fill-rule:nonzero;stroke:none"
                   transform="translate(-24,6.5)"><tspan
                     id="tspan270"
                     y="0"
                     x="0 9.2668524 13.900278">0.2</tspan></text>
</g></g><g
               id="g274"><g
                 transform="matrix(4.8050156,0,0,4.8000002,717.39347,3375.6)"
                 id="g276"><text
                   id="text280"
                   style="font-variant:normal;font-weight:normal;font-size:16.66699982px;font-family:Helvetica;-inkscape-font-specification:Helvetica;writing-mode:lr-tb;fill:#262626;fill-opacity:1;fill-rule:nonzero;stroke:none"
                   transform="translate(-24,6.5)"><tspan
                     id="tspan278"
                     y="0"
                     x="0 9.2668524 13.900278">0.4</tspan></text>
</g></g><g
               id="g282"><g
                 transform="matrix(4.8050156,0,0,4.8000002,717.39347,3124.8)"
                 id="g284"><text
                   id="text288"
                   style="font-variant:normal;font-weight:normal;font-size:16.66699982px;font-family:Helvetica;-inkscape-font-specification:Helvetica;writing-mode:lr-tb;fill:#262626;fill-opacity:1;fill-rule:nonzero;stroke:none"
                   transform="translate(-24,6.5)"><tspan
                     id="tspan286"
                     y="0"
                     x="0 9.2668524 13.900278">0.6</tspan></text>
</g></g><g
               id="g290"><g
                 transform="matrix(4.8050156,0,0,4.8000002,717.39347,2874)"
                 id="g292"><text
                   id="text296"
                   style="font-variant:normal;font-weight:normal;font-size:16.66699982px;font-family:Helvetica;-inkscape-font-specification:Helvetica;writing-mode:lr-tb;fill:#262626;fill-opacity:1;fill-rule:nonzero;stroke:none"
                   transform="translate(-24,6.5)"><tspan
                     id="tspan294"
                     y="0"
                     x="0 9.2668524 13.900278">0.8</tspan></text>
</g></g><g
               id="g298"><g
                 transform="matrix(4.8050156,0,0,4.8000002,717.39347,2623.2)"
                 id="g300"><text
                   id="text304"
                   style="font-variant:normal;font-weight:normal;font-size:16.66699982px;font-family:Helvetica;-inkscape-font-specification:Helvetica;writing-mode:lr-tb;fill:#262626;fill-opacity:1;fill-rule:nonzero;stroke:none"
                   transform="translate(-10,6.5)"><tspan
                     id="tspan302"
                     y="0"
                     x="0">1</tspan></text>
</g></g><g
               id="g306"><g
                 transform="matrix(4.8050156,0,0,4.8000002,717.39347,2372.3999)"
                 id="g308"><text
                   id="text312"
                   style="font-variant:normal;font-weight:normal;font-size:16.66699982px;font-family:Helvetica;-inkscape-font-specification:Helvetica;writing-mode:lr-tb;fill:#262626;fill-opacity:1;fill-rule:nonzero;stroke:none"
                   transform="translate(-24,6.5)"><tspan
                     id="tspan310"
                     y="0"
                     x="0 9.2668524 13.900278">1.2</tspan></text>
</g></g><g
               id="g314"><g
                 transform="matrix(4.8050156,0,0,4.8000002,717.39347,2121.6)"
                 id="g316"><text
                   id="text320"
                   style="font-variant:normal;font-weight:normal;font-size:16.66699982px;font-family:Helvetica;-inkscape-font-specification:Helvetica;writing-mode:lr-tb;fill:#262626;fill-opacity:1;fill-rule:nonzero;stroke:none"
                   transform="translate(-24,6.5)"><tspan
                     id="tspan318"
                     y="0"
                     x="0 9.2668524 13.900278">1.4</tspan></text>
</g></g><g
               id="g322"><g
                 transform="matrix(-2.1e-7,-4.8000002,4.8050156,-2.1e-7,554.02298,3124.799)"
                 id="g324"><text
                   id="text328"
                   style="font-variant:normal;font-weight:normal;font-size:18.33300018px;font-family:Helvetica;-inkscape-font-specification:Helvetica;writing-mode:lr-tb;fill:#262626;fill-opacity:1;fill-rule:nonzero;stroke:none"
                   transform="translate(-7,-5)"><tspan
                     id="tspan326"
                     y="0"
                     x="0">U</tspan></text>
</g></g><g
               transform="matrix(4.8050156,0,0,4.8000002,148.79999,1939.2)"
               id="g330"><path
                 id="path332"
                 style="fill:none;stroke:#0000ff;stroke-width:3.33333302;stroke-linecap:butt;stroke-linejoin:round;stroke-miterlimit:10;stroke-dasharray:none;stroke-opacity:1"
                 d="m 125,403.75 h 0.742 0.74202 0.74196 0.74201 0.74202 0.742 0.74201 0.74197 0.742 0.74201 0.742 0.74202 0.74196 0.74201 0.74201 0.74201 0.742 0.74198 0.742 0.74201 0.742 0.74202 0.74196 0.74202 0.742 0.74201 0.742 0.74198 0.742 0.742 0.74202 0.74201 0.74197 0.74201 0.742 0.74201 0.742 0.74197 0.74201 0.742 0.74202 0.74201 0.74197 0.742 0.74201 0.742 0.74201 0.74197 0.74201 0.74202 0.742 0.742 0.74198 0.742 0.74201 0.742 0.74202 0.74196 0.74202 0.742 0.74201 0.742 0.74198 0.742 0.74201 0.742 0.74202 0.74196 0.74202 0.742 0.74201 0.742 0.74198 0.742 0.742 0.74202 0.74199 0.74201 0.74199 0.742 0.742 0.74199 0.74201 0.74199 0.74202 0.742 0.74199 0.74201 0.74198 0.74201 0.742 0.74199 0.74201 0.74199 0.74202 0.742 0.74199 0.742 0.74199 0.74201 0.742 0.74199 0.74202 0.74199 0.742 0.74201 0.74199 0.742 0.74199 0.74201 0.74201 0.74198 0.74202 0.74199 0.742 0.74201 0.74199 0.742 0.74199 0.742 0.74202 0.74199 0.74201 0.74199 0.742 0.742 0.74199 0.74201 0.74199 0.74202 0.742 0.74199 0.742 0.74199 0.74201 0.742 0.74199 0.74202 0.74198 0.74201 0.74201 0.74199 0.742 0.74199 0.74201 0.742 0.74199 0.74202 0.74199 0.742 0.74201 0.74199 0.742 0.74199 0.742 0.74202 0.74199 0.74201 0.74199 0.742 0.74201 0.74198 0.74201 0.74199 0.742 0.74202 0.74199 0.74201 0.74198 0.74201 0.742 0.74199 0.74201 0.74199 0.74202 0.742 0.74197 0.74201 0.742 0.74201 0.742 0.74201 0.742 0.74197 0.74201 0.742 0.74201 0.742 0.74201 0.742 0.74201 0.74197 0.742 0.74201 0.742 0.74201 0.742 0.74201 0.74197 0.742 0.74201 0.742 0.74201 0.74197 0.74201 0.74203 0.74197 0.74201 0.742 0.74201 0.742 0.74198 0.742 0.742 0.74201 0.742 0.74201 0.742 0.74198 0.742 0.742 0.74201 0.742 0.74198 0.74203 0.74201 0.74197 0.742 0.74201 0.742 0.74201 0.74197 0.74204 0.74197 0.74201 0.742 0.742 0.74201 0.74197 0.74201 0.74203 0.74198 0.742 0.742 0.74201 0.742 0.74198 0.742 0.74201 0.742 0.742 0.74201 0.742 0.74198 0.742 0.74201 0.742 0.742 0.74198 0.74203 0.74201 0.74197 0.74201 0.742 0.742 0.74201 0.74197 0.74204 0.74197 0.74201 0.742 0.74201 0.742 0.74197 0.74201 0.74203 0.74198 0.742 0.74201 0.742 0.742 0.74198 0.742 0.74201 0.742 0.74201 0.742 0.742 0.74198 0.742 0.74201 0.742 0.74201 0.742 0.742 0.74198 0.742 0.74201 0.742 0.74201 0.742 0.74197 0.74201 0.742 0.74201 0.742 0.74201 0.742 0.74201 0.74197 0.742 0.74201 0.742 0.74201 0.742 0.74197 0.74201 0.742 0.74201 0.742 0.74201 0.742 0.74201 0.74197 0.742 0.74201 0.742 0.74201 0.742 0.74198 0.742 0.742 0.74201 0.742 0.74201 0.742 0.74198 0.742 0.742 0.74201 0.742 0.74201 0.742 0.74201 0.74197 0.742 0.74201 0.742 0.74201 0.742 0.74198 0.742 0.742 0.74201 0.742 0.74201 0.74197 0.74204 0.74197 0.74201 0.742 0.742 0.74201 0.742 0.74198 0.742 0.74201 0.742 0.742 0.74201 0.742 0.74198 0.742 0.74201 0.742 0.742 0.74201 0.742 0.74198 0.742 0.74201 0.742 0.742 0.74201 0.742 0.74198 0.742 0.74201 0.742 0.742 0.74201 0.74197 0.74204 0.74197 0.74201 0.742 0.74201 0.742 0.742 0.74198 0.742 0.74201 0.742 0.74201 0.742 0.74197 0.74201 0.742 0.74201 0.742 0.74201 0.742 0.74197 0.74201 0.742 0.74201 l 0.742,-2.7e-4 h 0.74201 0.742 l 0.742,-2.5e-4 h 0.74198 0.742 l 0.74201,-2.7e-4 h 0.742 0.74201 0.742 0.742 0.74198 l 0.742,2.7e-4 0.74201,5.2e-4 0.742,5.2e-4 0.74201,7.9e-4 0.742,7.7e-4 0.74201,0.001 0.74197,10e-4 0.742,0.002 0.74201,0.002 0.742,0.002 0.74201,0.002 0.742,0.002 0.74197,0.002 0.74201,0.002 0.742,10e-4 0.74201,-2.8e-4 0.742,-0.002 0.74201,-0.004 0.742,-0.007 0.74198,-0.01 0.742,-0.0141 0.742,-0.0188 0.74201,-0.0243 0.742,-0.0301 0.74201,-0.036 0.742,-0.0421 0.74198,-0.0476 0.742,-0.0512 0.742,-0.0528 0.74201,-0.0512 0.742,-0.0452 0.74201,-0.0327 0.742,-0.0128 0.74201,0.017 0.74197,0.058 0.742,0.11206 0.74201,0.1813 0.742,0.26572 0.74201,0.36679 0.742,0.48251 0.74198,0.61185 0.742,0.74979 0.742,0.88983 0.74201,1.022 0.742,1.13278 0.74201,1.2049 0.742,1.21481 0.74198,1.1359 0.742,0.93527 0.742,0.57529 0.74201,0.0144 0.742,-0.79108 0.74201,-1.88464 0.742,-3.30664 0.74198,-5.08862 0.742,-7.24814 0.74201,-9.78147 0.742,-12.65677 0.742,-15.80694 0.74201,-19.12244 0.742,-22.45053 0.74198,-25.59363 0.742,-28.31817 0.74201,-30.36823 0.742,-31.48558 0.742,-31.43727 0.74201,-30.04558 0.742,-27.21938 0.74198,-22.975099 0.742,-17.452278 0.74201,-10.911098 0.742,-3.712639 0.742,3.712639 0.74201,10.911098 0.742,17.452278 0.74198,22.975099 0.742,27.21938 0.74201,30.04558 0.742,31.43727 0.742,31.48558 0.74201,30.36823 0.742,28.31817 0.74198,25.59363 0.742,22.45053 0.74201,19.12244 0.742,15.80694 0.742,12.65677 0.74201,9.78147 0.742,7.24814 0.74198,5.08862 0.742,3.30664 0.74201,1.88464 0.742,0.79108 0.74197,-0.0144 0.74201,-0.57529 0.742,-0.93527 0.74201,-1.1359 0.742,-1.21481 0.74201,-1.2049 0.742,-1.13278 0.74201,-1.022 0.742,-0.88983 0.742,-0.74979 0.74201,-0.61185 0.742,-0.48251 0.74201,-0.36679 0.74194,-0.26572 0.74201,-0.1813 0.742,-0.11206 0.742,-0.058 0.74201,-0.017 0.742,0.0128 0.74201,0.0327 0.742,0.0452 0.74201,0.0512 0.742,0.0528 0.742,0.0512 0.74201,0.0476 0.742,0.0421 0.74201,0.036 0.74194,0.0301 0.74201,0.0243 0.742,0.0188 0.742,0.0141 0.74201,0.01 0.742,0.007 0.74201,0.004 0.742,0.002 0.74201,2.8e-4 0.742,-10e-4 0.74201,-0.002 0.742,-0.002 0.742,-0.002 0.74201,-0.002 0.74194,-0.002 0.74201,-0.002 0.742,-0.002 0.742,-10e-4 0.74201,-0.001 0.742,-7.7e-4 0.74201,-7.9e-4 0.742,-5.2e-4 0.74201,-5.2e-4 0.742,-2.7e-4 h 0.74201 0.742 0.742 0.74195 0.742 l 0.74201,2.7e-4 h 0.742 0.74201 l 0.742,2.5e-4 h 0.742 0.74201 l 0.742,2.7e-4 h 0.74201 0.742 0.74201 0.742 0.742 0.74201 0.74194 0.74201 0.742 0.74201 0.742 0.742 0.74201 0.742 0.74201 0.742 0.74201 0.742 0.74201 0.742 0.74194 0.74201 0.742 0.74201 0.742 0.74201 0.742 0.742 0.74201 0.742 0.74201 0.742 0.74201 0.742 0.74194 0.74201 0.742 0.74201 0.742 0.74201 0.742 0.742 0.74201 0.742 0.74201 0.742 0.74201 0.74194 0.742 0.74201 0.742 0.74201 0.742 0.74201 0.742 0.742 0.74201 0.742 0.74201 0.742 0.74201 0.74194 0.742 0.74201 0.742 0.74201 0.742 0.74201 0.742 0.74201 0.742 0.742 0.74201 0.742 0.74201 0.74194 0.74201 0.742 0.742 0.74201 0.742 0.74201 0.742 0.74201 0.742 0.742 0.74201 0.742 0.74201 0.742 0.74195 0.742 0.742 0.74201 0.742 0.74201 0.742 0.74201 0.742 0.74201 0.742 0.742 0.74195 0.74206 0.74195 0.742 0.742 0.74201 0.742 0.74201 0.742 0.74201 0.742 0.74201 0.742 0.742 0.74195 0.742 0.74201 0.742 0.74201 0.742 0.742 0.74201 0.742 0.74201 0.742 0.74201 0.742 0.74194 0.74207 0.742 0.74195 0.742 0.74201 0.742 0.742 0.74201 0.742 0.74201 0.742 0.74201 0.742 0.74201 0.74194 0.742 0.74201 0.742 0.74201 0.742 0.74201 0.742 0.742 0.74201 0.742 0.74201 0.742 0.74201 0.742 0.74194 0.74201 0.742 0.74201 0.742 0.74201 0.742 0.742 0.74201 0.742 0.74201 0.742 0.74201 0.74194 0.742 0.74201 0.742 0.74201 0.742 0.74201 0.742 0.742 0.74201 0.742 0.74201 0.742 0.74201 0.742 0.74194 0.74201 0.742 0.74201 0.742 0.74201 0.742 0.74201 0.742 0.742 0.74201 0.742 0.74195 0.742 0.74207 0.74194 0.742 0.74201 0.742 0.74201 0.742 0.74201 0.742 0.742 0.74201 0.742 0.74201 0.74194 0.74201 0.742 0.742 0.74201 0.742 0.74201 0.742 0.74201 0.742 0.74201 0.742 0.742 0.74195 0.74206 0.74195 0.742 0.742 0.74201 0.742 0.74201 0.742 0.74201 0.742 0.74201 0.742 0.742 0.74201 0.74194 0.74201 0.742 0.74201 0.742 0.742 0.74201 0.742 0.74201 0.742 0.74201 0.742 0.74194 0.74207 0.742 0.74195 0.742 0.74201 0.742 0.742 0.74201 0.742 0.74201 0.742 0.74201 0.742 0.74201 0.74194 0.742 0.74201 0.742 0.74201 0.742 0.74201 0.742 0.742 0.74201 0.742 0.74201 0.742 0.74201 0.742 0.74194 0.74201 0.742 0.74201 0.742 0.74201 0.742 0.742 0.74201 0.742 0.74201 0.742 0.74201 0.74194 0.742 0.74201 0.742 0.74201 0.742 0.74201 0.742 0.742 0.74201 0.742 0.74201 0.742 0.74201 0.742 0.74194 0.74201 0.742 0.74201 0.742 0.74201 0.742 0.74201 0.742 0.742 0.74201 0.742 0.74195 0.742 0.74207 0.74194 0.742 0.74201 0.742 0.74201 0.742 0.74201 0.742 0.742 0.74201 0.742 0.74201 0.74194 0.74201 0.742 0.74207 0.74194 0.742 0.74201 0.742 0.74201 0.742 0.74201 0.742 0.742 0.74201 0.74194 0.74201 0.742 0.742 0.74201 0.742 0.74201 0.742 0.74201 0.742 0.74194 0.74207 0.742 0.74201 0.742 0.74195 0.742 0.74201 0.742 0.742 0.74201 0.742 0.74201 0.742 0.74201 0.74194 0.742 0.74207 0.742 0.74201 0.74194 0.74201 0.742 0.742 0.74201 0.742 0.74201 0.742 0.74201 0.742 0.74194 0.74201 0.742 0.74201 0.74206 0.74195 0.742 0.74201 0.742 0.742 0.74201 0.742 0.74201 0.742 0.74201 0.74194 0.742 0.74201 0.742 0.74201 0.742 0.74201" /></g><g
               transform="matrix(4.8050156,0,0,4.8000002,148.79999,1939.2)"
               id="g334"><path
                 id="path336"
                 style="fill:none;stroke:#ff0000;stroke-width:3.33333302;stroke-linecap:butt;stroke-linejoin:round;stroke-miterlimit:10;stroke-dasharray:none;stroke-opacity:1"
                 d="m 125,403.75 h 0.742 0.74202 0.74196 0.74201 0.74202 0.742 0.74201 0.74197 0.742 0.74201 0.742 0.74202 0.74196 0.74201 0.74201 0.74201 0.742 0.74198 0.742 0.74201 0.742 0.74202 0.74196 0.74202 0.742 0.74201 0.742 0.74198 0.742 0.742 0.74202 0.74201 0.74197 0.74201 0.742 0.74201 0.742 0.74197 0.74201 0.742 0.74202 0.74201 0.74197 0.742 0.74201 0.742 0.74201 0.74197 0.74201 0.74202 0.742 0.742 0.74198 0.742 0.74201 0.742 0.74202 0.74196 0.74202 0.742 0.74201 0.742 0.74198 0.742 0.74201 0.742 0.74202 0.74196 0.74202 0.742 0.74201 0.742 0.74198 0.742 0.742 0.74202 0.74199 0.74201 0.74199 0.742 0.742 0.74199 0.74201 0.74199 0.74202 0.742 0.74199 0.74201 0.74198 0.74201 0.742 0.74199 0.74201 0.74199 0.74202 0.742 0.74199 0.742 0.74199 0.74201 0.742 0.74199 0.74202 0.74199 0.742 0.74201 0.74199 0.742 0.74199 0.74201 0.74201 0.74198 0.74202 0.74199 0.742 0.74201 0.74199 0.742 0.74199 0.742 0.74202 0.74199 0.74201 0.74199 0.742 0.742 0.74199 0.74201 0.74199 0.74202 0.742 0.74199 0.742 0.74199 0.74201 0.742 0.74199 0.74202 0.74198 0.74201 0.74201 0.74199 0.742 0.74199 0.74201 0.742 0.74199 0.74202 0.74199 0.742 0.74201 0.74199 0.742 0.74199 0.742 0.74202 0.74199 0.74201 0.74199 0.742 0.74201 0.74198 0.74201 0.74199 0.742 0.74202 0.74199 0.74201 0.74198 0.74201 0.742 0.74199 0.74201 0.74199 0.74202 0.742 0.74197 0.74201 0.742 0.74201 0.742 0.74201 0.742 0.74197 0.74201 0.742 0.74201 0.742 0.74201 0.742 0.74201 0.74197 0.742 0.74201 0.742 0.74201 0.742 0.74201 0.74197 0.742 0.74201 0.742 0.74201 0.74197 0.74201 0.74203 0.74197 0.74201 0.742 0.74201 0.742 0.74198 0.742 0.742 0.74201 0.742 0.74201 0.742 0.74198 0.742 0.742 0.74201 0.742 0.74198 0.74203 0.74201 0.74197 0.742 0.74201 0.742 0.74201 0.74197 0.74204 0.74197 0.74201 0.742 0.742 0.74201 0.74197 0.74201 0.74203 0.74198 0.742 0.742 0.74201 0.742 0.74198 0.742 0.74201 0.742 0.742 0.74201 0.742 0.74198 0.742 0.74201 0.742 0.742 0.74198 0.74203 0.74201 0.74197 0.74201 0.742 0.742 0.74201 0.74197 0.74204 0.74197 0.74201 0.742 0.74201 0.742 0.74197 0.74201 0.74203 0.74198 0.742 0.74201 0.742 0.742 0.74198 0.742 0.74201 0.742 0.74201 0.742 0.742 0.74198 0.742 0.74201 0.742 0.74201 0.742 0.742 0.74198 0.742 0.74201 0.742 0.74201 0.742 0.74197 0.74201 0.742 0.74201 0.742 0.74201 0.742 0.74201 0.74197 0.742 0.74201 0.742 0.74201 0.742 0.74197 0.74201 0.742 0.74201 0.742 0.74201 0.742 0.74201 0.74197 0.742 0.74201 0.742 0.74201 0.742 0.74198 0.742 0.742 0.74201 0.742 0.74201 0.742 0.74198 0.742 0.742 0.74201 0.742 0.74201 0.742 0.74201 0.74197 0.742 0.74201 0.742 0.74201 0.742 0.74198 0.742 0.742 0.74201 0.742 0.74201 0.74197 0.74204 0.74197 0.74201 0.742 0.742 0.74201 0.742 0.74198 0.742 0.74201 0.742 0.742 0.74201 0.742 0.74198 0.742 0.74201 l 0.742,-3e-5 h 0.742 0.74201 0.742 l 0.74198,3e-5 h 0.742 0.74201 0.742 l 0.742,3e-5 h 0.74201 0.742 0.74198 0.742 l 0.74201,-3e-5 h 0.742 0.742 l 0.74201,-3e-5 h 0.74197 0.74204 0.74197 0.74201 l 0.742,3e-5 h 0.74201 0.742 0.742 0.74198 0.742 0.74201 0.742 0.74201 0.742 0.74197 l 0.74201,3e-5 h 0.742 0.74201 0.742 l 0.74201,-3e-5 0.742,-3e-5 0.74197,-3e-5 0.74201,3e-5 0.742,3e-5 0.74201,9e-5 0.742,-1.5e-4 0.74201,6e-5 0.742,9e-5 0.742,-1.8e-4 0.74198,6e-5 0.742,9e-5 0.74201,-1.8e-4 0.742,6e-5 0.74201,9e-5 0.742,6e-5 h 0.742 l 0.74198,-1.5e-4 0.742,-3e-5 0.74201,1.5e-4 0.742,-3e-5 0.74201,9e-5 0.742,-1.8e-4 0.74201,9e-5 0.74197,-2.1e-4 0.742,9e-5 0.74201,1.5e-4 h 0.742 l 0.74201,-1.2e-4 0.742,9e-5 h 0.74197 l 0.74201,-1.2e-4 0.742,9e-5 0.74201,-9e-5 0.742,2.1e-4 0.74201,3e-5 0.742,-1.8e-4 0.74198,9e-5 0.742,-6e-5 0.742,3e-5 0.74201,-9e-5 0.742,3e-5 0.74201,1.2e-4 0.742,6e-5 0.74198,-2.4e-4 0.742,-3e-5 0.742,6e-5 0.74201,9e-5 0.742,-1.2e-4 0.74201,1.2e-4 0.742,-6e-5 0.74201,3e-5 0.74197,3e-5 0.742,-1.5e-4 0.74201,1.5e-4 0.742,-1.5e-4 0.74201,2.1e-4 0.742,-1.5e-4 0.74198,-3e-5 h 0.742 l 0.742,3e-5 0.74201,3e-5 0.742,-6e-5 0.74201,2.7e-4 0.742,-3e-5 0.74198,-6e-5 0.742,-3e-5 0.742,3e-5 0.74201,-6e-5 0.742,-6e-5 0.74201,3e-5 h 0.742 0.74198 l 0.742,-6e-5 0.74201,-6e-5 0.742,6e-5 0.742,-6e-5 0.74201,1.5e-4 h 0.742 l 0.74198,-6e-5 0.742,6e-5 0.74201,6e-5 0.742,-3e-5 0.742,-1.2e-4 0.74201,1.5e-4 0.742,-6e-5 0.74198,-3e-5 0.742,9e-5 0.74201,-9e-5 0.742,3e-5 0.742,-6e-5 0.74201,9e-5 0.742,-6e-5 0.74198,3e-5 0.742,6e-5 0.74201,-1.8e-4 0.742,6e-5 0.742,3e-5 0.74201,-6e-5 0.742,-6e-5 0.74198,9e-5 0.742,9e-5 0.74201,-6e-5 0.742,6e-5 0.742,-1.2e-4 h 0.74201 l 0.742,3e-5 0.74198,3e-5 h 0.742 0.74201 l 0.742,6e-5 h 0.74197 l 0.74201,-9e-5 0.742,-3e-5 0.74201,6e-5 0.742,1.2e-4 0.74201,-1.8e-4 0.742,1.2e-4 0.74201,-3e-5 0.742,-6e-5 0.742,-3e-5 0.74201,-3e-5 0.742,1.8e-4 0.74201,-1.5e-4 0.74194,1.5e-4 0.74201,-1.5e-4 0.742,1.2e-4 0.742,-3e-5 0.74201,-6e-5 0.742,1.2e-4 0.74201,-6e-5 0.742,1.5e-4 0.74201,-6e-5 0.742,-1.5e-4 0.742,-1.2e-4 0.74201,1.8e-4 h 0.742 l 0.74201,-6e-5 0.74194,-6e-5 h 0.74201 l 0.742,-1.2e-4 0.742,-1e-4 0.74201,-2.4e-4 0.742,9e-5 0.74201,-3e-5 0.742,-2.1e-4 0.74201,3e-5 0.742,-1.5e-4 0.74201,3e-5 h 0.742 l 0.742,-6e-5 0.74201,3.6e-4 0.74194,4e-4 0.74201,3.6e-4 0.742,5.5e-4 0.742,9.8e-4 0.74201,9.8e-4 0.742,0.002 0.74201,0.002 0.742,0.002 0.74201,0.002 0.742,0.002 0.74201,0.002 0.742,0.002 0.742,0.002 0.74195,0.001 0.742,1.6e-4 0.74201,-9.8e-4 0.742,-0.003 0.74201,-0.006 0.742,-0.009 0.742,-0.0127 0.74201,-0.0173 0.742,-0.0222 0.74201,-0.0281 0.742,-0.0341 0.74201,-0.0401 0.742,-0.0457 0.742,-0.0501 0.74201,-0.0526 0.74194,-0.0523 0.74201,-0.0478 0.742,-0.0378 0.74201,-0.0205 0.742,0.006 0.742,0.0426 0.74201,0.0922 0.742,0.15598 0.74201,0.23523 0.742,0.33053 0.74201,0.44162 0.742,0.56669 0.74201,0.70227 0.742,0.84249 0.74194,0.97867 0.74201,1.09857 0.742,1.18595 0.74201,1.21994 0.742,1.17474 0.74201,1.01944 0.742,0.71799 0.742,0.23025 0.74201,-0.487 0.742,-1.4779 0.74201,-2.78412 0.742,-4.44086 0.74201,-6.47116 0.742,-8.87936 0.74194,-11.64417 0.74201,-14.71087 0.742,-17.9852 0.74201,-21.32898 0.742,-24.55945 0.74201,-27.45444 0.742,-29.76323 0.742,-31.22566 0.74201,-31.59691 0.742,-30.6773 0.74201,-28.34278 0.742,-24.571172 0.74201,-19.459816 0.74194,-13.228763 0.742,-6.208161 0.74201,1.190735 0.742,8.516666 0.74201,15.326279 0.742,21.230092 0.74201,25.93092 0.742,29.24734 0.742,31.12142 0.74201,31.61023 0.742,30.86531 0.74201,29.10414 0.742,26.57947 0.74201,23.55093 0.74194,20.26175 0.742,16.92239 0.74201,13.70163 0.742,10.7233 0.74201,8.06836 0.742,5.78012 0.74201,3.87091 0.742,2.32953 0.74201,1.12842 0.742,0.22983 0.742,-0.40918 0.74201,-0.83274 0.742,-1.08319 0.74201,-1.19961 0.74194,-1.21634 0.74201,-1.16269 0.742,-1.06287 0.742,-0.93622 0.74201,-0.79757 0.742,-0.65802 0.74201,-0.52533 0.742,-0.40442 0.74201,-0.29831 0.742,-0.20813 0.742,-0.13391 0.74201,-0.0749 0.742,-0.0295 0.74201,0.004 0.742,0.0269 0.74195,0.0417 0.742,0.0497 0.742,0.0528 0.74201,0.0521 0.742,0.0488 0.74201,0.044 0.742,0.0382 0.74201,0.0321 0.742,0.0262 0.74201,0.0206 0.742,0.0156 0.742,0.0113 0.74195,0.008 0.74206,0.005 0.74195,0.002 0.742,6.7e-4 0.742,-6.1e-4 0.74201,-0.001 0.742,-0.002 0.74201,-0.002 0.742,-0.002 0.74201,-0.002 0.742,-0.002 0.74201,-0.002 0.742,-0.002 0.742,-10e-4 0.74195,-0.001 0.742,-8.3e-4 0.74201,-5.8e-4 0.742,-4.3e-4 0.74201,-2.7e-4 0.742,-1.8e-4 0.742,-6e-5 h 0.74201 l 0.742,3e-5 0.74201,9e-5 0.742,9e-5 0.74201,9e-5 0.742,9e-5 0.74194,9e-5 0.74207,1e-4 0.742,6e-5 0.74195,6e-5 0.742,6e-5 0.74201,3e-5 0.742,3e-5 0.742,3e-5 0.74201,3e-5 h 0.742 0.74201 0.742 0.74201 0.742 0.74201 0.74194 0.742 0.74201 l 0.742,-3e-5 h 0.74201 0.742 0.74201 0.742 0.742 0.74201 0.742 0.74201 0.742 0.74201 0.742 0.74194 0.74201 0.742 0.74201 0.742 0.74201 0.742 0.742 0.74201 0.742 0.74201 0.742 0.74201 0.74194 0.742 0.74201 0.742 0.74201 0.742 0.74201 0.742 0.742 0.74201 0.742 0.74201 0.742 0.74201 0.742 0.74194 0.74201 0.742 0.74201 0.742 0.74201 0.742 0.74201 0.742 0.742 0.74201 0.742 0.74195 0.742 0.74207 0.74194 0.742 0.74201 0.742 0.74201 0.742 0.74201 0.742 0.742 0.74201 0.742 0.74201 0.74194 0.74201 0.742 0.742 0.74201 0.742 0.74201 0.742 0.74201 0.742 0.74201 0.742 0.742 0.74195 0.74206 0.74195 0.742 0.742 0.74201 0.742 0.74201 0.742 0.74201 0.742 0.74201 0.742 0.742 0.74201 0.74194 0.74201 0.742 0.74201 0.742 0.742 0.74201 0.742 0.74201 0.742 0.74201 0.742 0.74194 0.74207 0.742 0.74195 0.742 0.74201 0.742 0.742 0.74201 0.742 0.74201 0.742 0.74201 0.742 0.74201 0.74194 0.742 0.74201 0.742 0.74201 0.742 0.74201 0.742 0.742 0.74201 0.742 0.74201 0.742 0.74201 0.742 0.74194 0.74201 0.742 0.74201 0.742 0.74201 0.742 0.742 0.74201 0.742 0.74201 0.742 0.74201 0.74194 0.742 0.74201 0.742 0.74201 0.742 0.74201 0.742 0.742 0.74201 0.742 0.74201 0.742 0.74201 0.742 0.74194 0.74201 0.742 0.74201 0.742 0.74201 0.742 0.74201 0.742 0.742 0.74201 0.742 0.74195 0.742 0.74207 0.74194 0.742 0.74201 0.742 0.74201 0.742 0.74201 0.742 0.742 0.74201 0.742 0.74201 0.74194 0.74201 0.742 0.74207 0.74194 0.742 0.74201 0.742 0.74201 0.742 0.74201 0.742 0.742 0.74201 0.74194 0.74201 0.742 0.742 0.74201 0.742 0.74201 0.742 0.74201 0.742 0.74194 0.74207 0.742 0.74201 0.742 0.74195 0.742 0.74201 0.742 0.742 0.74201 0.742 0.74201 0.742 0.74201 0.74194 0.742 0.74207 0.742 0.74201 0.74194 0.74201 0.742 0.742 0.74201 0.742 0.74201 0.742 0.74201 0.742 0.74194 0.74201 0.742 0.74201 0.74206 0.74195 0.742 0.74201 0.742 0.742 0.74201 0.742 0.74201 0.742 0.74201 0.74194 0.742 0.74201 0.742 0.74201 0.742 0.74201" /></g><g
               transform="matrix(4.8050156,0,0,4.8000002,148.79999,1939.2)"
               id="g338"><path
                 id="path340"
                 style="fill:#ffffff;fill-opacity:1;fill-rule:nonzero;stroke:none"
                 d="M 237,97 V 51 h -99 v 46 z" /></g><g
               id="g342"><g
                 transform="matrix(4.8050156,0,0,4.8000002,1094.9015,2244.4931)"
                 id="g344"><text
                   id="text348"
                   style="font-variant:normal;font-weight:normal;font-size:15px;font-family:Helvetica;-inkscape-font-specification:Helvetica;writing-mode:lr-tb;fill:#000000;fill-opacity:1;fill-rule:nonzero;stroke:none"
                   transform="translate(0,6)"><tspan
                     id="tspan346"
                     y="0"
                     x="0 9.165 17.924999">T=0</tspan></text>
</g></g><g
               transform="matrix(4.8050156,0,0,4.8000002,148.79999,1939.2)"
               id="g350"><path
                 id="path352"
                 style="fill:none;stroke:#0000ff;stroke-width:3.33333302;stroke-linecap:butt;stroke-linejoin:round;stroke-miterlimit:10;stroke-dasharray:none;stroke-opacity:1"
                 d="m 143.01266,63.602741 h 50.12658" /></g><g
               id="g354"><g
                 transform="matrix(4.8050156,0,0,4.8000002,1094.9015,2344.3068)"
                 id="g356"><text
                   id="text360"
                   style="font-variant:normal;font-weight:normal;font-size:15px;font-family:Helvetica;-inkscape-font-specification:Helvetica;writing-mode:lr-tb;fill:#000000;fill-opacity:1;fill-rule:nonzero;stroke:none"
                   transform="translate(0,6)"><tspan
                     id="tspan358"
                     y="0"
                     x="0 9.165 17.924999 26.264999">T=20</tspan></text>
</g></g><g
               transform="matrix(4.8050156,0,0,4.8000002,148.79999,1939.2)"
               id="g362"><path
                 id="path364"
                 style="fill:none;stroke:#ff0000;stroke-width:3.33333302;stroke-linecap:butt;stroke-linejoin:round;stroke-miterlimit:10;stroke-dasharray:none;stroke-opacity:1"
                 d="m 143.01266,84.397263 h 50.12658" /></g><g
               transform="matrix(4.8050156,0,0,4.8000002,148.79999,1939.2)"
               id="g366"><path
                 id="path368"
                 style="fill:none;stroke:#262626;stroke-width:0.83333302;stroke-linecap:butt;stroke-linejoin:miter;stroke-miterlimit:10;stroke-dasharray:none;stroke-opacity:1"
                 d="M 138,97 V 51 h 99 v 46 z" /></g></g></g></g></g></g></svg>